  0
SECTION
  2
HEADER
  9
$ACADVER
  1
AC1024
  9
$ACADMAINTVER
 70
6
  9
$DWGCODEPAGE
  3
ANSI_1252
  9
$LASTSAVEDBY
  1
ezdxf
  9
$INSBASE
 10
0.0
 20
0.0
 30
0.0
  9
$EXTMIN
 10
1e+20
 20
1e+20
 30
1e+20
  9
$EXTMAX
 10
-1e+20
 20
-1e+20
 30
-1e+20
  9
$LIMMIN
 10
0.0
 20
0.0
  9
$LIMMAX
 10
420.0
 20
297.0
  9
$ORTHOMODE
 70
0
  9
$REGENMODE
 70
1
  9
$FILLMODE
 70
1
  9
$QTEXTMODE
 70
0
  9
$MIRRTEXT
 70
1
  9
$LTSCALE
 40
1.0
  9
$ATTMODE
 70
1
  9
$TEXTSIZE
 40
2.5
  9
$TRACEWID
 40
1.0
  9
$TEXTSTYLE
  7
Standard
  9
$CLAYER
  8
0
  9
$CELTYPE
  6
ByLayer
  9
$CECOLOR
 62
256
  9
$CELTSCALE
 40
1.0
  9
$DISPSILH
 70
0
  9
$DIMSCALE
 40
1.0
  9
$DIMASZ
 40
2.5
  9
$DIMEXO
 40
0.625
  9
$DIMDLI
 40
3.75
  9
$DIMRND
 40
0.0
  9
$DIMDLE
 40
0.0
  9
$DIMEXE
 40
1.25
  9
$DIMTP
 40
0.0
  9
$DIMTM
 40
0.0
  9
$DIMTXT
 40
2.5
  9
$DIMCEN
 40
2.5
  9
$DIMTSZ
 40
0.0
  9
$DIMTOL
 70
0
  9
$DIMLIM
 70
0
  9
$DIMTIH
 70
0
  9
$DIMTOH
 70
0
  9
$DIMSE1
 70
0
  9
$DIMSE2
 70
0
  9
$DIMTAD
 70
1
  9
$DIMZIN
 70
8
  9
$DIMBLK
  1

  9
$DIMASO
 70
1
  9
$DIMSHO
 70
1
  9
$DIMPOST
  1

  9
$DIMAPOST
  1

  9
$DIMALT
 70
0
  9
$DIMALTD
 70
3
  9
$DIMALTF
 40
0.03937007874
  9
$DIMLFAC
 40
1.0
  9
$DIMTOFL
 70
1
  9
$DIMTVP
 40
0.0
  9
$DIMTIX
 70
0
  9
$DIMSOXD
 70
0
  9
$DIMSAH
 70
0
  9
$DIMBLK1
  1

  9
$DIMBLK2
  1

  9
$DIMSTYLE
  2
ISO-25
  9
$DIMCLRD
 70
0
  9
$DIMCLRE
 70
0
  9
$DIMCLRT
 70
0
  9
$DIMTFAC
 40
1.0
  9
$DIMGAP
 40
0.625
  9
$DIMJUST
 70
0
  9
$DIMSD1
 70
0
  9
$DIMSD2
 70
0
  9
$DIMTOLJ
 70
0
  9
$DIMTZIN
 70
8
  9
$DIMALTZ
 70
0
  9
$DIMALTTZ
 70
0
  9
$DIMUPT
 70
0
  9
$DIMDEC
 70
2
  9
$DIMTDEC
 70
2
  9
$DIMALTU
 70
2
  9
$DIMALTTD
 70
3
  9
$DIMTXSTY
  7
Standard
  9
$DIMAUNIT
 70
0
  9
$DIMADEC
 70
0
  9
$DIMALTRND
 40
0.0
  9
$DIMAZIN
 70
0
  9
$DIMDSEP
 70
44
  9
$DIMATFIT
 70
3
  9
$DIMFRAC
 70
0
  9
$DIMLDRBLK
  1

  9
$DIMLUNIT
 70
2
  9
$DIMLWD
 70
-2
  9
$DIMLWE
 70
-2
  9
$DIMTMOVE
 70
0
  9
$DIMFXL
 40
1.0
  9
$DIMFXLON
 70
0
  9
$DIMJOGANG
 40
0.785398163397
  9
$DIMTFILL
 70
0
  9
$DIMTFILLCLR
 70
0
  9
$DIMARCSYM
 70
0
  9
$DIMLTYPE
  6

  9
$DIMLTEX1
  6

  9
$DIMLTEX2
  6

  9
$DIMTXTDIRECTION
 70
0
  9
$LUNITS
 70
2
  9
$LUPREC
 70
4
  9
$SKETCHINC
 40
1.0
  9
$FILLETRAD
 40
10.0
  9
$AUNITS
 70
0
  9
$AUPREC
 70
2
  9
$MENU
  1
.
  9
$ELEVATION
 40
0.0
  9
$PELEVATION
 40
0.0
  9
$THICKNESS
 40
0.0
  9
$LIMCHECK
 70
0
  9
$CHAMFERA
 40
0.0
  9
$CHAMFERB
 40
0.0
  9
$CHAMFERC
 40
0.0
  9
$CHAMFERD
 40
0.0
  9
$SKPOLY
 70
0
  9
$TDCREATE
 40
2461046.8725694446
  9
$TDUCREATE
 40
2458532.153996898
  9
$TDUPDATE
 40
2461046.8725694446
  9
$TDUUPDATE
 40
2458532.1544311
  9
$TDINDWG
 40
0.0
  9
$TDUSRTIMER
 40
0.0
  9
$USRTIMER
 70
1
  9
$ANGBASE
 50
0.0
  9
$ANGDIR
 70
0
  9
$PDMODE
 70
0
  9
$PDSIZE
 40
0.0
  9
$PLINEWID
 40
0.0
  9
$SPLFRAME
 70
0
  9
$SPLINETYPE
 70
6
  9
$SPLINESEGS
 70
8
  9
$HANDSEED
  5
78
  9
$SURFTAB1
 70
6
  9
$SURFTAB2
 70
6
  9
$SURFTYPE
 70
6
  9
$SURFU
 70
6
  9
$SURFV
 70
6
  9
$UCSBASE
  2

  9
$UCSNAME
  2

  9
$UCSORG
 10
0.0
 20
0.0
 30
0.0
  9
$UCSXDIR
 10
1.0
 20
0.0
 30
0.0
  9
$UCSYDIR
 10
0.0
 20
1.0
 30
0.0
  9
$UCSORTHOREF
  2

  9
$UCSORTHOVIEW
 70
0
  9
$UCSORGTOP
 10
0.0
 20
0.0
 30
0.0
  9
$UCSORGBOTTOM
 10
0.0
 20
0.0
 30
0.0
  9
$UCSORGLEFT
 10
0.0
 20
0.0
 30
0.0
  9
$UCSORGRIGHT
 10
0.0
 20
0.0
 30
0.0
  9
$UCSORGFRONT
 10
0.0
 20
0.0
 30
0.0
  9
$UCSORGBACK
 10
0.0
 20
0.0
 30
0.0
  9
$PUCSBASE
  2

  9
$PUCSNAME
  2

  9
$PUCSORG
 10
0.0
 20
0.0
 30
0.0
  9
$PUCSXDIR
 10
1.0
 20
0.0
 30
0.0
  9
$PUCSYDIR
 10
0.0
 20
1.0
 30
0.0
  9
$PUCSORTHOREF
  2

  9
$PUCSORTHOVIEW
 70
0
  9
$PUCSORGTOP
 10
0.0
 20
0.0
 30
0.0
  9
$PUCSORGBOTTOM
 10
0.0
 20
0.0
 30
0.0
  9
$PUCSORGLEFT
 10
0.0
 20
0.0
 30
0.0
  9
$PUCSORGRIGHT
 10
0.0
 20
0.0
 30
0.0
  9
$PUCSORGFRONT
 10
0.0
 20
0.0
 30
0.0
  9
$PUCSORGBACK
 10
0.0
 20
0.0
 30
0.0
  9
$USERI1
 70
0
  9
$USERI2
 70
0
  9
$USERI3
 70
0
  9
$USERI4
 70
0
  9
$USERI5
 70
0
  9
$USERR1
 40
0.0
  9
$USERR2
 40
0.0
  9
$USERR3
 40
0.0
  9
$USERR4
 40
0.0
  9
$USERR5
 40
0.0
  9
$WORLDVIEW
 70
1
  9
$SHADEDGE
 70
3
  9
$SHADEDIF
 70
70
  9
$TILEMODE
 70
1
  9
$MAXACTVP
 70
64
  9
$PINSBASE
 10
0.0
 20
0.0
 30
0.0
  9
$PLIMCHECK
 70
0
  9
$PEXTMIN
 10
1e+20
 20
1e+20
 30
1e+20
  9
$PEXTMAX
 10
-1e+20
 20
-1e+20
 30
-1e+20
  9
$PLIMMIN
 10
0.0
 20
0.0
  9
$PLIMMAX
 10
420.0
 20
297.0
  9
$UNITMODE
 70
0
  9
$VISRETAIN
 70
1
  9
$PLINEGEN
 70
0
  9
$PSLTSCALE
 70
1
  9
$TREEDEPTH
 70
3020
  9
$CMLSTYLE
  2
Standard
  9
$CMLJUST
 70
0
  9
$CMLSCALE
 40
20.0
  9
$PROXYGRAPHICS
 70
1
  9
$MEASUREMENT
 70
1
  9
$CELWEIGHT
370
-1
  9
$ENDCAPS
280
0
  9
$JOINSTYLE
280
0
  9
$LWDISPLAY
290
0
  9
$INSUNITS
 70
4
  9
$HYPERLINKBASE
  1

  9
$STYLESHEET
  1

  9
$XEDIT
290
1
  9
$CEPSNTYPE
380
0
  9
$PSTYLEMODE
290
1
  9
$FINGERPRINTGUID
  2
{C3DA585A-81DD-4275-AEE7-02EF60FD9E80}
  9
$VERSIONGUID
  2
{7E7923CD-8B31-47E4-A78E-829525F5F842}
  9
$EXTNAMES
290
1
  9
$PSVPSCALE
 40
0.0
  9
$OLESTARTUP
290
0
  9
$SORTENTS
280
127
  9
$INDEXCTL
280
0
  9
$HIDETEXT
280
1
  9
$XCLIPFRAME
280
1
  9
$HALOGAP
280
0
  9
$OBSCOLOR
 70
257
  9
$OBSLTYPE
280
0
  9
$INTERSECTIONDISPLAY
280
0
  9
$INTERSECTIONCOLOR
 70
257
  9
$DIMASSOC
280
2
  9
$PROJECTNAME
  1

  9
$CAMERADISPLAY
290
0
  9
$LENSLENGTH
 40
50.0
  9
$CAMERAHEIGHT
 40
0.0
  9
$STEPSPERSEC
 40
24.0
  9
$STEPSIZE
 40
100.0
  9
$3DDWFPREC
 40
2.0
  9
$PSOLWIDTH
 40
0.005
  9
$PSOLHEIGHT
 40
0.08
  9
$LOFTANG1
 40
1.570796326795
  9
$LOFTANG2
 40
1.570796326795
  9
$LOFTMAG1
 40
0.0
  9
$LOFTMAG2
 40
0.0
  9
$LOFTPARAM
 70
7
  9
$LOFTNORMALS
280
1
  9
$LATITUDE
 40
37.795
  9
$LONGITUDE
 40
-122.394
  9
$NORTHDIRECTION
 40
0.0
  9
$TIMEZONE
 70
-8000
  9
$LIGHTGLYPHDISPLAY
280
1
  9
$TILEMODELIGHTSYNCH
280
1
  9
$CMATERIAL
347
20
  9
$SOLIDHIST
280
0
  9
$SHOWHIST
280
1
  9
$DWFFRAME
280
2
  9
$DGNFRAME
280
2
  9
$REALWORLDSCALE
290
1
  9
$INTERFERECOLOR
 62
256
  9
$CSHADOW
280
0
  9
$SHADOWPLANELOCATION
 40
0.0
  0
ENDSEC
  0
SECTION
  2
CLASSES
  0
CLASS
  1
ACDBDICTIONARYWDFLT
  2
AcDbDictionaryWithDefault
  3
ObjectDBX Classes
 90
0
 91
0
280
0
281
0
  0
CLASS
  1
SUN
  2
AcDbSun
  3
SCENEOE
 90
1153
 91
0
280
0
281
0
  0
CLASS
  1
VISUALSTYLE
  2
AcDbVisualStyle
  3
ObjectDBX Classes
 90
4095
 91
0
280
0
281
0
  0
CLASS
  1
MATERIAL
  2
AcDbMaterial
  3
ObjectDBX Classes
 90
1153
 91
0
280
0
281
0
  0
CLASS
  1
SCALE
  2
AcDbScale
  3
ObjectDBX Classes
 90
1153
 91
0
280
0
281
0
  0
CLASS
  1
TABLESTYLE
  2
AcDbTableStyle
  3
ObjectDBX Classes
 90
4095
 91
0
280
0
281
0
  0
CLASS
  1
MLEADERSTYLE
  2
AcDbMLeaderStyle
  3
ACDB_MLEADERSTYLE_CLASS
 90
4095
 91
0
280
0
281
0
  0
CLASS
  1
DICTIONARYVAR
  2
AcDbDictionaryVar
  3
ObjectDBX Classes
 90
0
 91
0
280
0
281
0
  0
CLASS
  1
CELLSTYLEMAP
  2
AcDbCellStyleMap
  3
ObjectDBX Classes
 90
1152
 91
0
280
0
281
0
  0
CLASS
  1
MENTALRAYRENDERSETTINGS
  2
AcDbMentalRayRenderSettings
  3
SCENEOE
 90
1024
 91
0
280
0
281
0
  0
CLASS
  1
ACDBDETAILVIEWSTYLE
  2
AcDbDetailViewStyle
  3
ObjectDBX Classes
 90
1025
 91
0
280
0
281
0
  0
CLASS
  1
ACDBSECTIONVIEWSTYLE
  2
AcDbSectionViewStyle
  3
ObjectDBX Classes
 90
1025
 91
0
280
0
281
0
  0
CLASS
  1
RASTERVARIABLES
  2
AcDbRasterVariables
  3
ISM
 90
0
 91
0
280
0
281
0
  0
CLASS
  1
LAYOUT
  2
AcDbLayout
  3
ObjectDBX Classes
 90
0
 91
0
280
0
281
0
  0
CLASS
  1
ACDBPLACEHOLDER
  2
AcDbPlaceHolder
  3
ObjectDBX Classes
 90
0
 91
0
280
0
281
0
  0
ENDSEC
  0
SECTION
  2
TABLES
  0
TABLE
  2
VPORT
  5
8
330
0
100
AcDbSymbolTable
 70
1
  0
VPORT
  5
23
330
8
100
AcDbSymbolTableRecord
100
AcDbViewportTableRecord
  2
*Active
 70
0
 10
0.0
 20
0.0
 11
1.0
 21
1.0
 12
0.0
 22
0.0
 13
0.0
 23
0.0
 14
0.5
 24
0.5
 15
0.5
 25
0.5
 16
0.0
 26
0.0
 36
1.0
 17
0.0
 27
0.0
 37
0.0
 40
1000.0
 41
1.34
 42
50.0
 43
0.0
 44
0.0
 50
0.0
 51
0.0
 71
0
 72
1000
 73
1
 74
3
 75
0
 76
0
 77
0
 78
0
281
0
 65
0
146
0.0
  0
ENDTAB
  0
TABLE
  2
LTYPE
  5
2
330
0
100
AcDbSymbolTable
 70
3
  0
LTYPE
  5
24
330
2
100
AcDbSymbolTableRecord
100
AcDbLinetypeTableRecord
  2
ByBlock
 70
0
  3

 72
65
 73
0
 40
0.0
  0
LTYPE
  5
25
330
2
100
AcDbSymbolTableRecord
100
AcDbLinetypeTableRecord
  2
ByLayer
 70
0
  3

 72
65
 73
0
 40
0.0
  0
LTYPE
  5
26
330
2
100
AcDbSymbolTableRecord
100
AcDbLinetypeTableRecord
  2
Continuous
 70
0
  3

 72
65
 73
0
 40
0.0
  0
ENDTAB
  0
TABLE
  2
LAYER
  5
1
330
0
100
AcDbSymbolTable
 70
2
  0
LAYER
  5
27
330
1
100
AcDbSymbolTableRecord
100
AcDbLayerTableRecord
  2
0
 70
0
 62
7
  6
Continuous
370
-3
390
13
347
21
  0
LAYER
  5
28
330
1
100
AcDbSymbolTableRecord
100
AcDbLayerTableRecord
  2
Defpoints
 70
0
 62
7
  6
Continuous
290
0
370
-3
390
13
347
21
  0
ENDTAB
  0
TABLE
  2
STYLE
  5
5
330
0
100
AcDbSymbolTable
 70
1
  0
STYLE
  5
29
330
5
100
AcDbSymbolTableRecord
100
AcDbTextStyleTableRecord
  2
Standard
 70
0
 40
0.0
 41
1.0
 50
0.0
 71
0
 42
2.5
  3
txt
  4

  0
ENDTAB
  0
TABLE
  2
VIEW
  5
7
330
0
100
AcDbSymbolTable
 70
0
  0
ENDTAB
  0
TABLE
  2
UCS
  5
6
330
0
100
AcDbSymbolTable
 70
0
  0
ENDTAB
  0
TABLE
  2
APPID
  5
3
330
0
100
AcDbSymbolTable
 70
3
  0
APPID
  5
2A
330
3
100
AcDbSymbolTableRecord
100
AcDbRegAppTableRecord
  2
ACAD
 70
0
  0
APPID
  5
75
330
3
100
AcDbSymbolTableRecord
100
AcDbRegAppTableRecord
  2
HATCHBACKGROUNDCOLOR
 70
0
  0
APPID
  5
76
330
3
100
AcDbSymbolTableRecord
100
AcDbRegAppTableRecord
  2
EZDXF
 70
0
  0
ENDTAB
  0
TABLE
  2
DIMSTYLE
  5
4
330
0
100
AcDbSymbolTable
 70
1
100
AcDbDimStyleTable
  0
DIMSTYLE
105
2B
330
4
100
AcDbSymbolTableRecord
100
AcDbDimStyleTableRecord
  2
Standard
 70
0
 40
1.0
 41
2.5
 42
0.625
 43
3.75
 44
1.25
 45
0.0
 46
0.0
 47
0.0
 48
0.0
 49
2.5
140
2.5
141
2.5
142
0.0
143
0.03937007874
144
1.0
145
0.0
146
1.0
147
0.625
148
0.0
 69
0
 70
0
 71
0
 72
0
 73
0
 74
0
 75
0
 76
0
 77
1
 78
8
 79
3
170
0
171
3
172
1
173
0
174
0
175
0
176
0
177
0
178
0
179
2
271
2
272
2
273
2
274
3
275
0
276
0
277
2
278
44
279
0
280
0
281
0
282
0
283
0
284
8
285
0
286
0
288
0
289
3
290
0
371
-2
372
-2
  0
ENDTAB
  0
TABLE
  2
BLOCK_RECORD
  5
9
330
0
100
AcDbSymbolTable
 70
2
  0
BLOCK_RECORD
  5
17
330
9
100
AcDbSymbolTableRecord
100
AcDbBlockTableRecord
  2
*Model_Space
340
1A
 70
0
280
1
281
0
  0
BLOCK_RECORD
  5
1B
330
9
100
AcDbSymbolTableRecord
100
AcDbBlockTableRecord
  2
*Paper_Space
340
1E
 70
0
280
1
281
0
  0
ENDTAB
  0
ENDSEC
  0
SECTION
  2
BLOCKS
  0
BLOCK
  5
18
330
17
100
AcDbEntity
  8
0
100
AcDbBlockBegin
  2
*Model_Space
 70
0
 10
0.0
 20
0.0
 30
0.0
  3
*Model_Space
  1

  0
ENDBLK
  5
19
330
17
100
AcDbEntity
  8
0
100
AcDbBlockEnd
  0
BLOCK
  5
1C
330
1B
100
AcDbEntity
  8
0
100
AcDbBlockBegin
  2
*Paper_Space
 70
0
 10
0.0
 20
0.0
 30
0.0
  3
*Paper_Space
  1

  0
ENDBLK
  5
1D
330
1B
100
AcDbEntity
  8
0
100
AcDbBlockEnd
  0
ENDSEC
  0
SECTION
  2
ENTITIES
  0
LWPOLYLINE
  5
2F
330
17
100
AcDbEntity
  8
0
100
AcDbPolyline
 90
99
 70
1
 10
364.5
 20
29.5
 10
364.0
 20
29.0
 10
363.5
 20
29.0
 10
363.0
 20
28.5
 10
363.0
 20
27.0
 10
364.0
 20
26.0
 10
366.5
 20
26.0
 10
367.0
 20
25.5
 10
368.0
 20
25.5
 10
368.5
 20
25.0
 10
368.5
 20
17.0
 10
369.0
 20
16.5
 10
369.0
 20
13.0
 10
368.5
 20
12.5
 10
369.0
 20
12.0
 10
369.0
 20
11.0
 10
369.5
 20
10.5
 10
372.0
 20
10.5
 10
372.5
 20
11.0
 10
372.5
 20
11.5
 10
373.0
 20
12.0
 10
373.0
 20
25.0
 10
374.0
 20
26.0
 10
377.5
 20
26.0
 10
378.5
 20
27.0
 10
379.0
 20
27.0
 10
379.5
 20
27.5
 10
380.0
 20
27.5
 10
381.0
 20
26.5
 10
381.0
 20
26.0
 10
381.5
 20
25.5
 10
381.5
 20
25.0
 10
382.5
 20
24.0
 10
382.5
 20
23.0
 10
384.0
 20
21.5
 10
384.0
 20
20.5
 10
385.0
 20
19.5
 10
385.0
 20
19.0
 10
385.5
 20
18.5
 10
385.5
 20
17.5
 10
386.0
 20
17.0
 10
386.0
 20
11.0
 10
386.5
 20
11.0
 10
387.0
 20
10.5
 10
389.0
 20
10.5
 10
389.5
 20
11.0
 10
389.5
 20
11.5
 10
390.0
 20
12.0
 10
390.0
 20
17.5
 10
390.5
 20
18.0
 10
390.5
 20
18.5
 10
391.0
 20
19.0
 10
391.0
 20
19.5
 10
391.5
 20
20.0
 10
391.5
 20
20.5
 10
392.0
 20
21.0
 10
392.0
 20
21.5
 10
392.5
 20
22.0
 10
392.5
 20
22.5
 10
393.5
 20
23.5
 10
393.5
 20
24.0
 10
394.0
 20
24.5
 10
394.0
 20
25.0
 10
394.5
 20
25.5
 10
394.5
 20
26.0
 10
395.5
 20
27.0
 10
395.5
 20
29.0
 10
395.0
 20
29.5
 10
393.0
 20
29.5
 10
392.5
 20
29.0
 10
392.0
 20
29.0
 10
391.5
 20
28.5
 10
391.5
 20
28.0
 10
391.0
 20
27.5
 10
391.0
 20
27.0
 10
390.0
 20
26.0
 10
390.0
 20
25.0
 10
389.5
 20
24.5
 10
389.5
 20
23.5
 10
389.0
 20
23.0
 10
388.5
 20
23.0
 10
388.0
 20
22.5
 10
387.5
 20
22.5
 10
387.0
 20
23.0
 10
387.0
 20
23.5
 10
386.5
 20
24.0
 10
386.5
 20
24.5
 10
385.5
 20
25.5
 10
385.5
 20
26.5
 10
385.0
 20
27.0
 10
385.0
 20
27.5
 10
383.0
 20
29.5
 10
381.0
 20
29.5
 10
380.5
 20
29.0
 10
379.0
 20
29.0
 10
378.5
 20
28.5
 10
378.0
 20
29.0
 10
377.5
 20
29.0
 10
377.0
 20
29.5
  0
LWPOLYLINE
  5
30
330
17
100
AcDbEntity
  8
0
100
AcDbPolyline
 90
44
 70
1
 10
348.0
 20
29.5
 10
347.5
 20
29.0
 10
347.0
 20
29.0
 10
346.5
 20
28.5
 10
346.5
 20
11.5
 10
347.5
 20
10.5
 10
360.5
 20
10.5
 10
361.0
 20
11.0
 10
361.0
 20
12.0
 10
361.5
 20
12.5
 10
360.5
 20
13.5
 10
359.5
 20
13.5
 10
359.0
 20
14.0
 10
358.0
 20
14.0
 10
357.5
 20
13.5
 10
357.0
 20
14.0
 10
351.5
 20
14.0
 10
351.0
 20
14.5
 10
351.0
 20
15.0
 10
350.5
 20
15.5
 10
350.5
 20
17.5
 10
351.0
 20
18.0
 10
351.0
 20
18.5
 10
351.5
 20
19.0
 10
359.0
 20
19.0
 10
360.0
 20
20.0
 10
360.0
 20
20.5
 10
359.5
 20
21.0
 10
359.5
 20
21.5
 10
359.0
 20
22.0
 10
351.5
 20
22.0
 10
350.5
 20
23.0
 10
350.5
 20
24.5
 10
351.5
 20
25.5
 10
352.5
 20
25.5
 10
353.0
 20
26.0
 10
360.0
 20
26.0
 10
360.5
 20
26.5
 10
360.5
 20
27.0
 10
361.0
 20
27.5
 10
360.5
 20
28.0
 10
360.5
 20
29.0
 10
359.5
 20
29.0
 10
359.0
 20
29.5
  0
LWPOLYLINE
  5
31
330
17
100
AcDbEntity
  8
0
100
AcDbPolyline
 90
18
 70
1
 10
340.5
 20
29.5
 10
340.0
 20
29.0
 10
339.5
 20
29.0
 10
339.0
 20
28.5
 10
339.0
 20
13.0
 10
338.5
 20
12.5
 10
339.0
 20
12.0
 10
339.0
 20
11.0
 10
339.5
 20
10.5
 10
342.0
 20
10.5
 10
342.5
 20
11.0
 10
342.5
 20
11.5
 10
343.0
 20
12.0
 10
343.0
 20
27.5
 10
342.5
 20
28.0
 10
342.5
 20
29.0
 10
341.5
 20
29.0
 10
341.0
 20
29.5
  0
LWPOLYLINE
  5
32
330
17
100
AcDbEntity
  8
0
100
AcDbPolyline
 90
74
 70
1
 10
325.0
 20
29.5
 10
324.5
 20
29.0
 10
324.0
 20
29.0
 10
323.5
 20
28.5
 10
323.0
 20
28.5
 10
321.5
 20
27.0
 10
321.0
 20
27.0
 10
321.0
 20
26.5
 10
319.5
 20
25.0
 10
319.5
 20
23.0
 10
319.0
 20
22.5
 10
319.0
 20
16.5
 10
319.5
 20
16.0
 10
319.5
 20
15.0
 10
320.5
 20
14.0
 10
320.5
 20
13.5
 10
321.0
 20
13.0
 10
321.0
 20
12.5
 10
321.5
 20
12.0
 10
322.0
 20
12.0
 10
322.5
 20
11.5
 10
323.0
 20
11.5
 10
324.0
 20
10.5
 10
331.0
 20
10.5
 10
332.0
 20
11.5
 10
332.5
 20
11.5
 10
334.5
 20
13.5
 10
334.5
 20
14.0
 10
335.5
 20
15.0
 10
335.5
 20
16.0
 10
335.0
 20
16.5
 10
334.5
 20
16.5
 10
334.0
 20
17.0
 10
333.5
 20
17.0
 10
333.0
 20
16.5
 10
332.0
 20
16.5
 10
331.0
 20
15.5
 10
331.0
 20
15.0
 10
330.5
 20
14.5
 10
330.0
 20
14.5
 10
329.0
 20
13.5
 10
326.0
 20
13.5
 10
325.0
 20
14.5
 10
324.5
 20
14.5
 10
324.0
 20
15.0
 10
324.0
 20
15.5
 10
323.5
 20
16.0
 10
323.5
 20
16.5
 10
323.0
 20
17.0
 10
323.0
 20
22.0
 10
323.5
 20
22.5
 10
323.5
 20
23.5
 10
324.0
 20
24.0
 10
324.0
 20
24.5
 10
324.5
 20
25.0
 10
325.0
 20
25.0
 10
326.0
 20
26.0
 10
329.0
 20
26.0
 10
329.5
 20
25.5
 10
330.0
 20
25.5
 10
332.5
 20
23.0
 10
335.0
 20
23.0
 10
335.0
 20
23.5
 10
335.5
 20
24.0
 10
335.5
 20
25.0
 10
334.0
 20
26.5
 10
334.0
 20
27.0
 10
333.0
 20
28.0
 10
332.5
 20
28.0
 10
332.0
 20
28.5
 10
331.5
 20
28.5
 10
331.0
 20
29.0
 10
330.5
 20
29.0
 10
330.0
 20
29.5
  0
LWPOLYLINE
  5
33
330
17
100
AcDbEntity
  8
0
100
AcDbPolyline
 90
45
 70
1
 10
304.0
 20
29.5
 10
303.5
 20
29.0
 10
303.0
 20
29.0
 10
302.5
 20
28.5
 10
302.0
 20
28.5
 10
299.5
 20
26.0
 10
299.5
 20
25.5
 10
298.5
 20
24.5
 10
298.5
 20
22.5
 10
298.0
 20
22.0
 10
298.0
 20
18.0
 10
298.5
 20
17.5
 10
298.5
 20
15.5
 10
299.0
 20
15.0
 10
299.0
 20
14.5
 10
300.0
 20
13.5
 10
300.0
 20
13.0
 10
300.5
 20
13.0
 10
301.0
 20
12.5
 10
301.0
 20
12.0
 10
301.5
 20
12.0
 10
302.5
 20
11.0
 10
303.0
 20
11.0
 10
303.5
 20
10.5
 10
311.0
 20
10.5
 10
312.0
 20
11.5
 10
312.5
 20
11.5
 10
313.0
 20
12.0
 10
313.5
 20
12.0
 10
314.5
 20
13.0
 10
314.5
 20
13.5
 10
315.0
 20
14.0
 10
315.0
 20
14.5
 10
316.0
 20
15.5
 10
316.0
 20
19.5
 10
316.5
 20
20.0
 10
316.0
 20
20.5
 10
316.0
 20
24.5
 10
315.0
 20
25.5
 10
315.0
 20
26.0
 10
312.5
 20
28.5
 10
312.0
 20
28.5
 10
311.5
 20
29.0
 10
311.0
 20
29.0
 10
310.5
 20
29.5
  0
LWPOLYLINE
  5
34
330
17
100
AcDbEntity
  8
0
100
AcDbPolyline
 90
30
 70
1
 10
305.5
 20
26.0
 10
306.0
 20
26.5
 10
308.5
 20
26.5
 10
309.0
 20
26.0
 10
309.5
 20
26.0
 10
311.5
 20
24.0
 10
311.5
 20
23.5
 10
312.0
 20
23.0
 10
312.0
 20
16.5
 10
311.5
 20
16.0
 10
311.5
 20
15.5
 10
311.0
 20
15.0
 10
310.5
 20
15.0
 10
309.0
 20
13.5
 10
305.5
 20
13.5
 10
304.5
 20
14.5
 10
304.0
 20
14.5
 10
303.0
 20
15.5
 10
303.0
 20
16.0
 10
302.5
 20
16.5
 10
302.5
 20
18.0
 10
302.0
 20
18.5
 10
302.0
 20
21.5
 10
302.5
 20
22.0
 10
302.5
 20
23.5
 10
303.0
 20
24.0
 10
303.0
 20
24.5
 10
303.5
 20
25.0
 10
304.0
 20
25.0
 10
305.0
 20
26.0
  0
LWPOLYLINE
  5
35
330
17
100
AcDbEntity
  8
0
100
AcDbPolyline
 90
81
 70
1
 10
284.5
 20
29.5
 10
284.0
 20
29.0
 10
283.5
 20
29.0
 10
283.0
 20
28.5
 10
282.5
 20
28.5
 10
280.5
 20
26.5
 10
280.5
 20
21.5
 10
282.5
 20
19.5
 10
283.5
 20
19.5
 10
284.0
 20
19.0
 10
285.5
 20
19.0
 10
286.0
 20
18.5
 10
286.5
 20
18.5
 10
287.0
 20
18.0
 10
289.5
 20
18.0
 10
290.0
 20
17.5
 10
290.5
 20
17.5
 10
291.0
 20
17.0
 10
291.0
 20
16.5
 10
292.0
 20
15.5
 10
290.0
 20
13.5
 10
289.0
 20
13.5
 10
288.5
 20
13.0
 10
287.0
 20
13.0
 10
286.5
 20
13.5
 10
285.5
 20
13.5
 10
283.0
 20
16.0
 10
280.5
 20
16.0
 10
280.0
 20
15.5
 10
280.0
 20
14.5
 10
280.5
 20
14.0
 10
280.5
 20
13.5
 10
282.5
 20
11.5
 10
283.0
 20
11.5
 10
284.0
 20
10.5
 10
291.5
 20
10.5
 10
292.5
 20
11.5
 10
293.0
 20
11.5
 10
293.5
 20
12.0
 10
294.0
 20
12.0
 10
294.5
 20
12.5
 10
294.5
 20
13.0
 10
295.0
 20
13.5
 10
295.0
 20
14.0
 10
295.5
 20
14.5
 10
295.5
 20
17.5
 10
295.0
 20
18.0
 10
295.0
 20
19.0
 10
294.0
 20
20.0
 10
293.5
 20
20.0
 10
293.0
 20
20.5
 10
291.5
 20
20.5
 10
291.0
 20
21.0
 10
290.0
 20
21.0
 10
289.5
 20
21.5
 10
288.5
 20
21.5
 10
288.0
 20
22.0
 10
286.0
 20
22.0
 10
285.5
 20
22.5
 10
285.0
 20
22.5
 10
284.5
 20
23.0
 10
284.5
 20
23.5
 10
284.0
 20
24.0
 10
284.0
 20
24.5
 10
284.5
 20
25.0
 10
284.5
 20
25.5
 10
285.5
 20
26.5
 10
289.0
 20
26.5
 10
291.5
 20
24.0
 10
292.5
 20
24.0
 10
293.0
 20
23.5
 10
293.5
 20
23.5
 10
294.0
 20
24.0
 10
294.5
 20
24.0
 10
295.0
 20
24.5
 10
295.0
 20
26.0
 10
292.5
 20
28.5
 10
292.0
 20
28.5
 10
291.5
 20
29.0
 10
291.0
 20
29.0
 10
290.5
 20
29.5
  0
LWPOLYLINE
  5
36
330
17
100
AcDbEntity
  8
0
100
AcDbPolyline
 90
41
 70
1
 10
255.5
 20
29.5
 10
255.0
 20
29.0
 10
254.5
 20
29.0
 10
254.0
 20
28.5
 10
254.0
 20
28.0
 10
253.5
 20
27.5
 10
253.5
 20
12.0
 10
254.0
 20
11.5
 10
254.0
 20
11.0
 10
254.5
 20
10.5
 10
257.0
 20
10.5
 10
257.5
 20
11.0
 10
257.5
 20
17.5
 10
258.0
 20
18.0
 10
258.0
 20
18.5
 10
258.5
 20
19.0
 10
264.5
 20
19.0
 10
265.0
 20
18.5
 10
265.0
 20
18.0
 10
265.5
 20
17.5
 10
265.5
 20
11.0
 10
266.0
 20
10.5
 10
268.5
 20
10.5
 10
269.5
 20
11.5
 10
269.5
 20
28.0
 10
269.0
 20
28.5
 10
269.0
 20
29.0
 10
268.5
 20
29.0
 10
268.0
 20
29.5
 10
267.0
 20
29.5
 10
266.5
 20
29.0
 10
266.0
 20
29.0
 10
265.5
 20
28.5
 10
265.5
 20
23.0
 10
264.5
 20
22.0
 10
258.5
 20
22.0
 10
258.0
 20
22.5
 10
258.0
 20
23.0
 10
257.5
 20
23.5
 10
257.5
 20
28.5
 10
256.5
 20
29.5
  0
LWPOLYLINE
  5
37
330
17
100
AcDbEntity
  8
0
100
AcDbPolyline
 90
23
 70
1
 10
237.5
 20
29.5
 10
237.0
 20
29.0
 10
236.0
 20
29.0
 10
236.0
 20
28.5
 10
235.5
 20
28.0
 10
235.5
 20
27.0
 10
236.5
 20
26.0
 10
240.0
 20
26.0
 10
241.5
 20
24.5
 10
241.5
 20
11.0
 10
242.0
 20
10.5
 10
245.0
 20
10.5
 10
245.5
 20
11.0
 10
245.5
 20
24.5
 10
247.0
 20
26.0
 10
251.0
 20
26.0
 10
251.0
 20
26.5
 10
251.5
 20
27.0
 10
251.5
 20
28.0
 10
251.0
 20
28.5
 10
251.0
 20
29.0
 10
250.0
 20
29.0
 10
249.5
 20
29.5
  0
LWPOLYLINE
  5
38
330
17
100
AcDbEntity
  8
0
100
AcDbPolyline
 90
49
 70
1
 10
219.5
 20
29.5
 10
219.0
 20
29.0
 10
218.5
 20
29.0
 10
218.0
 20
28.5
 10
218.0
 20
27.5
 10
217.5
 20
27.0
 10
217.5
 20
25.5
 10
218.0
 20
25.0
 10
218.0
 20
15.0
 10
218.5
 20
14.5
 10
218.5
 20
14.0
 10
219.0
 20
13.5
 10
219.0
 20
13.0
 10
220.5
 20
11.5
 10
221.0
 20
11.5
 10
222.0
 20
10.5
 10
229.5
 20
10.5
 10
231.0
 20
12.0
 10
231.5
 20
12.0
 10
232.0
 20
12.5
 10
232.0
 20
13.0
 10
232.5
 20
13.5
 10
232.5
 20
14.0
 10
233.0
 20
14.5
 10
233.0
 20
15.0
 10
233.5
 20
15.5
 10
233.5
 20
28.0
 10
233.0
 20
28.5
 10
233.0
 20
29.0
 10
232.5
 20
29.0
 10
232.0
 20
29.5
 10
230.5
 20
29.5
 10
229.5
 20
28.5
 10
229.5
 20
16.5
 10
229.0
 20
16.0
 10
229.0
 20
15.0
 10
228.5
 20
14.5
 10
228.0
 20
14.5
 10
228.0
 20
14.0
 10
227.5
 20
13.5
 10
224.0
 20
13.5
 10
223.5
 20
14.0
 10
223.5
 20
14.5
 10
223.0
 20
14.5
 10
222.0
 20
15.5
 10
222.0
 20
28.0
 10
221.5
 20
28.5
 10
221.5
 20
29.0
 10
221.0
 20
29.5
  0
LWPOLYLINE
  5
39
330
17
100
AcDbEntity
  8
0
100
AcDbPolyline
 90
42
 70
1
 10
202.0
 20
29.5
 10
201.0
 20
28.5
 10
200.5
 20
28.5
 10
200.0
 20
28.0
 10
199.5
 20
28.0
 10
198.0
 20
26.5
 10
198.0
 20
26.0
 10
197.5
 20
25.5
 10
197.5
 20
25.0
 10
197.0
 20
24.5
 10
197.0
 20
24.0
 10
196.5
 20
23.5
 10
196.5
 20
16.0
 10
197.5
 20
15.0
 10
197.5
 20
14.5
 10
198.0
 20
14.0
 10
198.0
 20
13.5
 10
199.5
 20
12.0
 10
200.0
 20
12.0
 10
201.5
 20
10.5
 10
204.0
 20
10.5
 10
204.5
 20
10.0
 10
206.0
 20
10.0
 10
206.5
 20
10.5
 10
209.5
 20
10.5
 10
210.5
 20
11.5
 10
211.0
 20
11.5
 10
213.5
 20
14.0
 10
213.5
 20
14.5
 10
214.0
 20
15.0
 10
214.0
 20
16.0
 10
214.5
 20
16.5
 10
214.5
 20
23.5
 10
214.0
 20
24.0
 10
214.0
 20
25.0
 10
213.0
 20
26.0
 10
213.0
 20
26.5
 10
211.5
 20
28.0
 10
211.0
 20
28.0
 10
210.5
 20
28.5
 10
210.0
 20
28.5
 10
209.0
 20
29.5
  0
LWPOLYLINE
  5
3A
330
17
100
AcDbEntity
  8
0
100
AcDbPolyline
 90
26
 70
1
 10
203.5
 20
26.0
 10
204.0
 20
26.5
 10
207.0
 20
26.5
 10
208.0
 20
25.5
 10
208.5
 20
25.5
 10
209.5
 20
24.5
 10
209.5
 20
24.0
 10
210.0
 20
23.5
 10
210.0
 20
23.0
 10
210.5
 20
22.5
 10
210.5
 20
22.0
 10
211.0
 20
21.5
 10
211.0
 20
18.5
 10
210.5
 20
18.0
 10
210.5
 20
17.5
 10
210.0
 20
17.0
 10
210.0
 20
16.0
 10
207.5
 20
13.5
 10
203.5
 20
13.5
 10
201.0
 20
16.0
 10
201.0
 20
16.5
 10
200.5
 20
17.0
 10
200.5
 20
23.0
 10
201.0
 20
23.5
 10
201.0
 20
24.0
 10
203.0
 20
26.0
  0
LWPOLYLINE
  5
3B
330
17
100
AcDbEntity
  8
0
100
AcDbPolyline
 90
66
 70
1
 10
179.0
 20
29.5
 10
178.5
 20
29.0
 10
178.5
 20
27.0
 10
179.5
 20
26.0
 10
179.5
 20
25.5
 10
180.0
 20
25.0
 10
180.0
 20
24.5
 10
180.5
 20
24.0
 10
180.5
 20
23.5
 10
181.5
 20
22.5
 10
181.5
 20
22.0
 10
182.0
 20
21.5
 10
182.0
 20
21.0
 10
183.0
 20
20.0
 10
183.0
 20
19.0
 10
184.0
 20
18.0
 10
184.0
 20
12.0
 10
184.5
 20
11.5
 10
184.5
 20
11.0
 10
185.0
 20
10.5
 10
187.5
 20
10.5
 10
188.0
 20
11.0
 10
188.0
 20
17.0
 10
188.5
 20
17.5
 10
188.5
 20
18.5
 10
189.0
 20
19.0
 10
189.0
 20
19.5
 10
190.0
 20
20.5
 10
190.0
 20
21.0
 10
190.5
 20
21.5
 10
190.5
 20
22.0
 10
191.5
 20
23.0
 10
191.5
 20
24.0
 10
192.0
 20
24.5
 10
192.0
 20
25.0
 10
193.0
 20
26.0
 10
193.0
 20
26.5
 10
193.5
 20
27.0
 10
193.5
 20
28.0
 10
194.0
 20
28.5
 10
194.0
 20
29.0
 10
193.5
 20
29.0
 10
193.0
 20
29.5
 10
191.0
 20
29.5
 10
189.0
 20
27.5
 10
189.0
 20
26.5
 10
188.5
 20
26.0
 10
188.5
 20
25.5
 10
188.0
 20
25.0
 10
188.0
 20
24.5
 10
187.5
 20
24.0
 10
187.5
 20
23.5
 10
187.0
 20
23.0
 10
187.0
 20
22.5
 10
186.5
 20
22.0
 10
184.5
 20
24.0
 10
184.5
 20
24.5
 10
184.0
 20
25.0
 10
184.0
 20
26.0
 10
183.0
 20
27.0
 10
183.0
 20
27.5
 10
182.5
 20
28.0
 10
182.5
 20
28.5
 10
182.0
 20
29.0
 10
181.0
 20
29.0
 10
180.5
 20
29.5
  0
LWPOLYLINE
  5
3C
330
17
100
AcDbEntity
  8
0
100
AcDbPolyline
 90
17
 70
1
 10
460.5
 20
49.5
 10
460.0
 20
49.0
 10
460.0
 20
48.5
 10
459.5
 20
48.0
 10
459.5
 20
46.5
 10
459.0
 20
46.0
 10
459.0
 20
42.5
 10
459.5
 20
42.0
 10
459.5
 20
41.0
 10
460.5
 20
40.0
 10
462.0
 20
40.0
 10
463.0
 20
41.0
 10
463.0
 20
42.0
 10
463.5
 20
42.5
 10
463.5
 20
48.5
 10
463.0
 20
49.0
 10
463.0
 20
49.5
  0
LWPOLYLINE
  5
3D
330
17
100
AcDbEntity
  8
0
100
AcDbPolyline
 90
22
 70
1
 10
341.0
 20
54.5
 10
340.5
 20
54.0
 10
340.5
 20
52.0
 10
341.0
 20
51.5
 10
342.0
 20
51.5
 10
342.5
 20
51.0
 10
345.5
 20
51.0
 10
346.5
 20
50.0
 10
346.5
 20
36.5
 10
347.0
 20
36.0
 10
349.5
 20
36.0
 10
350.0
 20
36.5
 10
350.0
 20
37.0
 10
350.5
 20
37.5
 10
350.5
 20
50.5
 10
351.0
 20
51.0
 10
354.5
 20
51.0
 10
355.0
 20
51.5
 10
355.5
 20
51.5
 10
356.0
 20
52.0
 10
356.0
 20
53.5
 10
355.0
 20
54.5
  0
LWPOLYLINE
  5
3E
330
17
100
AcDbEntity
  8
0
100
AcDbPolyline
 90
31
 70
1
 10
287.0
 20
54.5
 10
287.0
 20
54.0
 10
286.5
 20
53.5
 10
286.5
 20
52.0
 10
287.0
 20
51.5
 10
288.0
 20
51.5
 10
288.5
 20
51.0
 10
289.0
 20
51.0
 10
289.5
 20
51.5
 10
290.0
 20
51.5
 10
290.5
 20
51.0
 10
291.5
 20
51.0
 10
292.5
 20
50.0
 10
292.5
 20
36.5
 10
293.0
 20
36.0
 10
295.5
 20
36.0
 10
296.5
 20
37.0
 10
296.5
 20
50.0
 10
297.5
 20
51.0
 10
298.5
 20
51.0
 10
299.0
 20
51.5
 10
299.5
 20
51.0
 10
300.5
 20
51.0
 10
301.0
 20
51.5
 10
302.0
 20
51.5
 10
302.0
 20
52.0
 10
302.5
 20
52.5
 10
302.5
 20
53.0
 10
302.0
 20
53.5
 10
302.0
 20
54.0
 10
301.5
 20
54.5
  0
LWPOLYLINE
  5
3F
330
17
100
AcDbEntity
  8
0
100
AcDbPolyline
 90
79
 70
1
 10
324.5
 20
55.0
 10
324.0
 20
54.5
 10
323.0
 20
54.5
 10
322.5
 20
54.0
 10
322.5
 20
36.5
 10
323.0
 20
36.5
 10
323.5
 20
36.0
 10
325.0
 20
36.0
 10
325.5
 20
36.5
 10
326.0
 20
36.5
 10
326.0
 20
39.0
 10
326.5
 20
39.5
 10
326.5
 20
46.0
 10
327.5
 20
47.0
 10
328.0
 20
46.5
 10
328.0
 20
46.0
 10
328.5
 20
45.5
 10
328.5
 20
45.0
 10
329.5
 20
44.0
 10
329.5
 20
43.5
 10
330.0
 20
43.0
 10
330.0
 20
42.5
 10
331.0
 20
41.5
 10
331.0
 20
41.0
 10
331.5
 20
40.5
 10
331.5
 20
40.0
 10
332.5
 20
39.0
 10
332.5
 20
38.5
 10
333.0
 20
38.0
 10
333.0
 20
37.5
 10
334.5
 20
36.0
 10
337.0
 20
36.0
 10
337.5
 20
36.5
 10
338.0
 20
36.5
 10
338.0
 20
37.5
 10
338.5
 20
38.0
 10
338.5
 20
40.0
 10
338.0
 20
40.5
 10
338.0
 20
43.0
 10
338.5
 20
43.5
 10
338.0
 20
44.0
 10
338.5
 20
44.5
 10
338.5
 20
46.5
 10
338.0
 20
47.0
 10
338.0
 20
51.5
 10
338.5
 20
52.0
 10
338.5
 20
53.0
 10
338.0
 20
53.5
 10
338.0
 20
54.0
 10
337.5
 20
54.5
 10
337.0
 20
54.5
 10
336.5
 20
55.0
 10
336.0
 20
54.5
 10
335.0
 20
54.5
 10
335.0
 20
54.0
 10
334.5
 20
53.5
 10
334.5
 20
45.0
 10
334.0
 20
44.5
 10
334.0
 20
44.0
 10
333.5
 20
43.5
 10
333.0
 20
44.0
 10
333.0
 20
44.5
 10
331.5
 20
46.0
 10
331.5
 20
46.5
 10
331.0
 20
47.0
 10
331.0
 20
47.5
 10
330.0
 20
48.5
 10
330.0
 20
49.0
 10
329.5
 20
49.5
 10
329.5
 20
50.0
 10
328.5
 20
51.0
 10
328.5
 20
51.5
 10
328.0
 20
52.0
 10
328.0
 20
52.5
 10
327.0
 20
53.5
 10
327.0
 20
54.0
 10
326.5
 20
54.5
 10
325.5
 20
54.5
 10
325.0
 20
55.0
  0
LWPOLYLINE
  5
40
330
17
100
AcDbEntity
  8
0
100
AcDbPolyline
 90
49
 70
1
 10
306.5
 20
55.0
 10
306.0
 20
54.5
 10
305.5
 20
54.5
 10
305.0
 20
54.0
 10
305.0
 20
53.5
 10
304.5
 20
53.0
 10
304.5
 20
37.5
 10
305.0
 20
37.0
 10
305.0
 20
36.5
 10
305.5
 20
36.0
 10
318.5
 20
36.0
 10
319.0
 20
36.5
 10
319.0
 20
37.5
 10
319.5
 20
38.0
 10
318.5
 20
39.0
 10
310.0
 20
39.0
 10
309.0
 20
40.0
 10
309.0
 20
40.5
 10
308.5
 20
41.0
 10
308.5
 20
42.5
 10
309.0
 20
43.0
 10
309.0
 20
43.5
 10
309.5
 20
44.0
 10
311.5
 20
44.0
 10
312.0
 20
44.5
 10
314.0
 20
44.5
 10
314.5
 20
44.0
 10
315.0
 20
44.5
 10
317.5
 20
44.5
 10
317.5
 20
45.0
 10
318.0
 20
45.5
 10
318.0
 20
46.0
 10
317.5
 20
46.5
 10
317.5
 20
47.0
 10
317.0
 20
47.5
 10
309.5
 20
47.5
 10
308.5
 20
48.5
 10
308.5
 20
50.0
 10
309.5
 20
51.0
 10
317.5
 20
51.0
 10
318.0
 20
51.5
 10
318.5
 20
51.5
 10
318.5
 20
52.0
 10
319.0
 20
52.5
 10
319.0
 20
53.5
 10
318.5
 20
54.0
 10
318.5
 20
54.5
 10
309.0
 20
54.5
 10
308.5
 20
55.0
  0
LWPOLYLINE
  5
41
330
17
100
AcDbEntity
  8
0
100
AcDbPolyline
 90
44
 70
1
 10
273.0
 20
55.0
 10
272.5
 20
54.5
 10
272.0
 20
54.5
 10
271.5
 20
54.0
 10
271.0
 20
54.0
 10
270.5
 20
53.5
 10
270.0
 20
53.5
 10
268.5
 20
52.0
 10
268.5
 20
51.5
 10
267.0
 20
50.0
 10
267.0
 20
47.5
 10
266.5
 20
47.0
 10
266.5
 20
44.0
 10
267.0
 20
43.5
 10
267.0
 20
41.0
 10
267.5
 20
40.5
 10
267.5
 20
40.0
 10
268.5
 20
39.0
 10
268.5
 20
38.5
 10
270.0
 20
37.0
 10
270.5
 20
37.0
 10
271.5
 20
36.0
 10
273.0
 20
36.0
 10
273.5
 20
35.5
 10
278.0
 20
35.5
 10
278.5
 20
36.0
 10
280.0
 20
36.0
 10
281.0
 20
37.0
 10
281.5
 20
37.0
 10
283.5
 20
39.0
 10
283.5
 20
39.5
 10
284.5
 20
40.5
 10
284.5
 20
43.5
 10
285.0
 20
44.0
 10
285.0
 20
47.0
 10
284.5
 20
47.5
 10
284.5
 20
50.0
 10
283.5
 20
51.0
 10
283.5
 20
51.5
 10
281.5
 20
53.5
 10
281.0
 20
53.5
 10
280.0
 20
54.5
 10
279.5
 20
54.5
 10
279.0
 20
55.0
  0
LWPOLYLINE
  5
42
330
17
100
AcDbEntity
  8
0
100
AcDbPolyline
 90
32
 70
1
 10
274.5
 20
52.0
 10
276.5
 20
52.0
 10
277.0
 20
51.5
 10
277.5
 20
51.5
 10
278.0
 20
51.0
 10
278.5
 20
51.0
 10
280.0
 20
49.5
 10
280.0
 20
49.0
 10
280.5
 20
48.5
 10
280.5
 20
46.5
 10
281.0
 20
46.0
 10
281.0
 20
44.0
 10
280.5
 20
43.5
 10
280.5
 20
41.5
 10
278.0
 20
39.0
 10
277.0
 20
39.0
 10
276.5
 20
38.5
 10
275.0
 20
38.5
 10
274.5
 20
39.0
 10
273.5
 20
39.0
 10
271.5
 20
41.0
 10
271.5
 20
41.5
 10
271.0
 20
42.0
 10
271.0
 20
43.5
 10
270.5
 20
44.0
 10
270.5
 20
46.5
 10
271.0
 20
47.0
 10
271.0
 20
48.5
 10
271.5
 20
49.0
 10
271.5
 20
49.5
 10
273.0
 20
51.0
 10
273.5
 20
51.0
  0
LWPOLYLINE
  5
43
330
17
100
AcDbEntity
  8
0
100
AcDbPolyline
 90
38
 70
1
 10
251.0
 20
55.0
 10
250.5
 20
54.5
 10
250.0
 20
54.5
 10
249.5
 20
54.0
 10
249.5
 20
53.5
 10
249.0
 20
53.0
 10
249.0
 20
39.0
 10
249.5
 20
38.5
 10
249.5
 20
36.5
 10
250.0
 20
36.0
 10
252.5
 20
36.0
 10
253.0
 20
36.5
 10
253.0
 20
39.0
 10
253.5
 20
39.5
 10
253.5
 20
40.0
 10
253.0
 20
40.5
 10
253.0
 20
41.0
 10
253.5
 20
41.5
 10
253.5
 20
42.0
 10
254.0
 20
42.5
 10
255.0
 20
42.5
 10
255.5
 20
43.0
 10
260.5
 20
43.0
 10
261.0
 20
43.5
 10
261.5
 20
43.5
 10
263.5
 20
45.5
 10
263.5
 20
48.0
 10
264.0
 20
48.5
 10
264.0
 20
49.0
 10
263.5
 20
49.5
 10
263.5
 20
51.5
 10
261.5
 20
53.5
 10
261.0
 20
53.5
 10
260.5
 20
54.0
 10
259.0
 20
54.0
 10
258.5
 20
54.5
 10
253.5
 20
54.5
 10
253.0
 20
55.0
  0
LWPOLYLINE
  5
44
330
17
100
AcDbEntity
  8
0
100
AcDbPolyline
 90
19
 70
1
 10
255.0
 20
51.0
 10
255.5
 20
51.5
 10
256.5
 20
51.5
 10
257.0
 20
51.0
 10
258.5
 20
51.0
 10
259.5
 20
50.0
 10
259.5
 20
49.0
 10
260.0
 20
48.5
 10
259.5
 20
48.0
 10
259.5
 20
47.0
 10
258.5
 20
46.0
 10
254.0
 20
46.0
 10
253.5
 20
46.5
 10
253.5
 20
47.5
 10
253.0
 20
48.0
 10
253.0
 20
49.0
 10
253.5
 20
49.5
 10
253.5
 20
50.5
 10
254.0
 20
51.0
  0
LWPOLYLINE
  5
45
330
17
100
AcDbEntity
  8
0
100
AcDbPolyline
 90
12
 70
1
 10
243.5
 20
55.0
 10
243.0
 20
54.5
 10
242.0
 20
54.5
 10
241.5
 20
54.0
 10
241.5
 20
36.5
 10
242.0
 20
36.0
 10
245.0
 20
36.0
 10
245.5
 20
36.5
 10
245.5
 20
53.5
 10
245.0
 20
54.0
 10
245.0
 20
54.5
 10
244.0
 20
54.5
  0
LWPOLYLINE
  5
46
330
17
100
AcDbEntity
  8
0
100
AcDbPolyline
 90
70
 70
1
 10
224.0
 20
55.0
 10
223.5
 20
54.5
 10
223.0
 20
54.5
 10
222.5
 20
54.0
 10
222.5
 20
53.5
 10
222.0
 20
53.0
 10
222.0
 20
47.5
 10
222.5
 20
47.0
 10
222.0
 20
46.5
 10
222.0
 20
46.0
 10
222.5
 20
45.5
 10
222.0
 20
45.0
 10
222.0
 20
40.0
 10
222.5
 20
39.5
 10
222.5
 20
36.5
 10
223.0
 20
36.0
 10
225.5
 20
36.0
 10
226.0
 20
36.5
 10
226.0
 20
45.5
 10
226.5
 20
46.0
 10
226.5
 20
46.5
 10
227.0
 20
47.0
 10
227.5
 20
46.5
 10
227.5
 20
46.0
 10
229.0
 20
44.5
 10
229.0
 20
44.0
 10
229.5
 20
43.5
 10
229.5
 20
43.0
 10
230.5
 20
42.0
 10
230.5
 20
41.5
 10
231.0
 20
41.0
 10
231.0
 20
40.5
 10
232.0
 20
39.5
 10
232.0
 20
39.0
 10
232.5
 20
38.5
 10
232.5
 20
38.0
 10
234.5
 20
36.0
 10
237.5
 20
36.0
 10
238.0
 20
36.5
 10
238.0
 20
53.5
 10
237.5
 20
54.0
 10
237.5
 20
54.5
 10
236.5
 20
54.5
 10
236.0
 20
55.0
 10
235.5
 20
54.5
 10
235.0
 20
54.5
 10
234.5
 20
54.0
 10
234.5
 20
53.5
 10
234.0
 20
53.0
 10
234.0
 20
45.5
 10
233.5
 20
45.0
 10
233.5
 20
44.5
 10
233.0
 20
44.0
 10
232.5
 20
44.5
 10
232.5
 20
45.0
 10
231.5
 20
46.0
 10
231.5
 20
46.5
 10
230.5
 20
47.5
 10
230.5
 20
48.0
 10
230.0
 20
48.5
 10
230.0
 20
49.0
 10
229.0
 20
50.0
 10
229.0
 20
50.5
 10
228.0
 20
51.5
 10
228.0
 20
52.0
 10
227.5
 20
52.5
 10
227.5
 20
53.0
 10
226.0
 20
54.5
 10
225.0
 20
54.5
 10
224.5
 20
55.0
  0
LWPOLYLINE
  5
47
330
17
100
AcDbEntity
  8
0
100
AcDbPolyline
 90
92
 70
1
 10
201.5
 20
55.0
 10
201.0
 20
54.5
 10
200.5
 20
54.5
 10
200.0
 20
54.0
 10
200.0
 20
53.5
 10
199.5
 20
53.0
 10
199.5
 20
50.5
 10
200.0
 20
50.0
 10
200.0
 20
47.0
 10
199.5
 20
46.5
 10
199.5
 20
45.0
 10
200.0
 20
44.5
 10
200.0
 20
42.5
 10
199.5
 20
42.0
 10
199.5
 20
38.0
 10
200.0
 20
37.5
 10
200.0
 20
36.5
 10
200.5
 20
36.0
 10
203.0
 20
36.0
 10
203.5
 20
36.5
 10
203.5
 20
42.5
 10
204.0
 20
43.0
 10
204.0
 20
45.5
 10
204.5
 20
46.0
 10
205.0
 20
45.5
 10
205.0
 20
43.5
 10
205.5
 20
43.0
 10
205.5
 20
42.0
 10
206.0
 20
41.5
 10
206.0
 20
41.0
 10
206.5
 20
40.5
 10
206.5
 20
38.0
 10
207.0
 20
37.5
 10
207.0
 20
36.5
 10
207.5
 20
36.0
 10
210.5
 20
36.0
 10
211.0
 20
36.5
 10
211.0
 20
37.0
 10
211.5
 20
37.5
 10
211.5
 20
39.0
 10
212.0
 20
39.5
 10
212.0
 20
40.0
 10
212.5
 20
40.5
 10
212.5
 20
42.5
 10
213.0
 20
43.0
 10
213.0
 20
44.0
 10
213.5
 20
44.5
 10
214.5
 20
43.5
 10
214.5
 20
40.0
 10
215.0
 20
39.5
 10
215.0
 20
36.5
 10
215.5
 20
36.5
 10
216.0
 20
36.0
 10
218.0
 20
36.0
 10
218.5
 20
36.5
 10
218.5
 20
54.0
 10
218.0
 20
54.5
 10
217.5
 20
54.5
 10
217.0
 20
55.0
 10
215.0
 20
55.0
 10
214.5
 20
54.5
 10
213.5
 20
54.5
 10
212.5
 20
53.5
 10
212.5
 20
52.5
 10
212.0
 20
52.0
 10
212.0
 20
50.5
 10
211.5
 20
50.0
 10
211.5
 20
48.5
 10
211.0
 20
48.0
 10
211.0
 20
45.5
 10
210.5
 20
45.0
 10
210.5
 20
44.5
 10
210.0
 20
44.0
 10
210.0
 20
43.5
 10
209.5
 20
43.0
 10
209.5
 20
42.5
 10
209.0
 20
42.0
 10
208.5
 20
42.5
 10
208.5
 20
44.0
 10
208.0
 20
44.5
 10
208.0
 20
46.0
 10
207.5
 20
46.5
 10
207.5
 20
47.5
 10
207.0
 20
48.0
 10
207.0
 20
49.5
 10
206.5
 20
50.0
 10
206.5
 20
52.5
 10
206.0
 20
53.0
 10
206.0
 20
53.5
 10
205.0
 20
54.5
 10
204.0
 20
54.5
 10
203.5
 20
55.0
  0
LWPOLYLINE
  5
48
330
17
100
AcDbEntity
  8
0
100
AcDbPolyline
 90
43
 70
1
 10
185.0
 20
55.0
 10
184.5
 20
54.5
 10
184.0
 20
54.5
 10
183.5
 20
54.0
 10
183.0
 20
54.0
 10
182.5
 20
53.5
 10
182.0
 20
53.5
 10
180.0
 20
51.5
 10
180.0
 20
51.0
 10
179.5
 20
50.5
 10
179.5
 20
50.0
 10
178.5
 20
49.0
 10
178.5
 20
41.0
 10
179.5
 20
40.0
 10
179.5
 20
39.5
 10
182.5
 20
36.5
 10
183.0
 20
36.5
 10
183.5
 20
36.0
 10
185.0
 20
36.0
 10
185.5
 20
35.5
 10
190.0
 20
35.5
 10
190.5
 20
36.0
 10
192.0
 20
36.0
 10
193.5
 20
37.5
 10
194.0
 20
37.5
 10
194.5
 20
38.0
 10
194.5
 20
38.5
 10
196.0
 20
40.0
 10
196.0
 20
41.5
 10
196.5
 20
42.0
 10
196.5
 20
43.5
 10
197.0
 20
44.0
 10
197.0
 20
47.0
 10
196.5
 20
47.5
 10
196.5
 20
49.0
 10
196.0
 20
49.5
 10
196.0
 20
50.5
 10
194.5
 20
52.0
 10
194.5
 20
52.5
 10
194.0
 20
52.5
 10
192.5
 20
54.0
 10
192.0
 20
54.0
 10
191.0
 20
55.0
  0
LWPOLYLINE
  5
49
330
17
100
AcDbEntity
  8
0
100
AcDbPolyline
 90
30
 70
1
 10
186.0
 20
51.5
 10
186.5
 20
52.0
 10
188.5
 20
52.0
 10
189.0
 20
51.5
 10
189.5
 20
51.5
 10
190.0
 20
51.0
 10
190.5
 20
51.0
 10
191.5
 20
50.0
 10
191.5
 20
49.5
 10
192.0
 20
49.0
 10
192.0
 20
48.5
 10
192.5
 20
48.0
 10
192.5
 20
47.0
 10
193.0
 20
46.5
 10
193.0
 20
44.0
 10
192.5
 20
43.5
 10
192.5
 20
43.0
 10
192.0
 20
42.5
 10
192.0
 20
41.0
 10
190.0
 20
39.0
 10
189.0
 20
39.0
 10
188.5
 20
38.5
 10
186.5
 20
38.5
 10
186.0
 20
39.0
 10
185.5
 20
39.0
 10
183.0
 20
41.5
 10
183.0
 20
42.0
 10
182.5
 20
42.5
 10
182.5
 20
48.5
 10
185.5
 20
51.5
  0
LWPOLYLINE
  5
4A
330
17
100
AcDbEntity
  8
0
100
AcDbPolyline
 90
10
 70
1
 10
464.0
 20
87.5
 10
463.5
 20
87.0
 10
463.5
 20
86.5
 10
463.0
 20
86.0
 10
463.0
 20
84.5
 10
464.0
 20
83.5
 10
465.5
 20
83.5
 10
466.0
 20
84.0
 10
466.0
 20
87.0
 10
465.5
 20
87.5
  0
LWPOLYLINE
  5
4B
330
17
100
AcDbEntity
  8
0
100
AcDbPolyline
 90
14
 70
1
 10
36.5
 20
118.0
 10
36.0
 20
117.5
 10
35.5
 20
117.5
 10
35.5
 20
117.0
 10
35.0
 20
116.5
 10
36.0
 20
115.5
 10
39.5
 20
115.5
 10
40.0
 20
116.0
 10
40.5
 20
116.0
 10
40.5
 20
117.0
 10
40.0
 20
117.0
 10
39.5
 20
117.5
 10
38.5
 20
117.5
 10
38.0
 20
118.0
  0
LWPOLYLINE
  5
4C
330
17
100
AcDbEntity
  8
0
100
AcDbPolyline
 90
23
 70
1
 10
261.0
 20
235.5
 10
260.5
 20
235.0
 10
260.0
 20
235.0
 10
259.5
 20
234.5
 10
256.0
 20
234.5
 10
255.5
 20
234.0
 10
255.0
 20
234.0
 10
258.0
 20
231.0
 10
258.0
 20
230.5
 10
258.5
 20
230.0
 10
262.0
 20
230.0
 10
262.5
 20
230.5
 10
263.0
 20
230.5
 10
263.0
 20
231.0
 10
263.5
 20
231.5
 10
263.5
 20
232.0
 10
264.0
 20
232.5
 10
264.0
 20
233.0
 10
263.5
 20
233.5
 10
263.5
 20
234.0
 10
262.5
 20
235.0
 10
262.0
 20
235.0
 10
261.5
 20
235.5
  0
LWPOLYLINE
  5
4D
330
17
100
AcDbEntity
  8
0
100
AcDbPolyline
 90
6
 70
1
 10
480.5
 20
250.0
 10
480.0
 20
249.5
 10
480.0
 20
248.5
 10
480.5
 20
248.0
 10
481.0
 20
248.5
 10
481.0
 20
249.5
  0
LWPOLYLINE
  5
4E
330
17
100
AcDbEntity
  8
0
100
AcDbPolyline
 90
19
 70
1
 10
485.5
 20
315.5
 10
484.0
 20
314.0
 10
484.0
 20
313.5
 10
483.5
 20
313.0
 10
483.5
 20
311.5
 10
483.0
 20
311.0
 10
483.0
 20
310.5
 10
483.5
 20
310.0
 10
483.5
 20
308.0
 10
484.0
 20
307.5
 10
484.0
 20
307.0
 10
485.0
 20
306.0
 10
486.5
 20
307.5
 10
486.5
 20
308.0
 10
487.0
 20
308.5
 10
487.0
 20
310.0
 10
487.5
 20
310.5
 10
487.5
 20
314.5
 10
486.5
 20
315.5
  0
LWPOLYLINE
  5
4F
330
17
100
AcDbEntity
  8
0
100
AcDbPolyline
 90
29
 70
1
 10
243.5
 20
317.0
 10
243.0
 20
316.5
 10
242.5
 20
316.5
 10
242.0
 20
316.0
 10
241.5
 20
316.0
 10
241.0
 20
315.5
 10
240.0
 20
315.5
 10
239.5
 20
315.0
 10
238.0
 20
315.0
 10
237.5
 20
314.5
 10
237.0
 20
314.5
 10
235.5
 20
313.0
 10
235.5
 20
312.0
 10
236.0
 20
311.5
 10
236.5
 20
311.5
 10
237.0
 20
312.0
 10
238.0
 20
312.0
 10
238.5
 20
312.5
 10
239.0
 20
312.5
 10
239.0
 20
313.0
 10
240.5
 20
314.5
 10
242.0
 20
314.5
 10
242.5
 20
315.0
 10
244.0
 20
315.0
 10
244.5
 20
315.5
 10
245.0
 20
315.5
 10
245.5
 20
316.0
 10
245.5
 20
316.5
 10
245.0
 20
317.0
  0
LWPOLYLINE
  5
50
330
17
100
AcDbEntity
  8
0
100
AcDbPolyline
 90
46
 70
1
 10
270.5
 20
325.0
 10
269.0
 20
323.5
 10
268.0
 20
323.5
 10
267.5
 20
323.0
 10
266.5
 20
323.0
 10
266.0
 20
322.5
 10
264.5
 20
322.5
 10
264.0
 20
323.0
 10
262.0
 20
323.0
 10
261.5
 20
322.5
 10
259.0
 20
322.5
 10
258.5
 20
322.0
 10
257.0
 20
322.0
 10
256.5
 20
321.5
 10
253.5
 20
321.5
 10
253.0
 20
321.0
 10
252.5
 20
321.0
 10
252.0
 20
320.5
 10
251.5
 20
320.5
 10
250.5
 20
319.5
 10
250.5
 20
318.5
 10
251.0
 20
318.0
 10
252.5
 20
318.0
 10
253.0
 20
318.5
 10
254.0
 20
318.5
 10
255.0
 20
319.5
 10
256.5
 20
319.5
 10
257.0
 20
320.0
 10
257.5
 20
320.0
 10
258.0
 20
319.5
 10
260.5
 20
319.5
 10
261.0
 20
319.0
 10
264.0
 20
319.0
 10
264.5
 20
318.5
 10
267.5
 20
318.5
 10
268.0
 20
319.0
 10
269.0
 20
319.0
 10
271.0
 20
321.0
 10
271.5
 20
321.0
 10
272.0
 20
321.5
 10
272.0
 20
322.5
 10
272.5
 20
323.0
 10
272.5
 20
323.5
 10
272.0
 20
324.0
 10
272.0
 20
324.5
 10
271.0
 20
324.5
  0
LWPOLYLINE
  5
51
330
17
100
AcDbEntity
  8
0
100
AcDbPolyline
 90
6
 70
1
 10
458.5
 20
376.5
 10
458.0
 20
376.0
 10
458.0
 20
375.5
 10
458.5
 20
375.5
 10
459.0
 20
376.0
 10
459.0
 20
376.5
  0
LWPOLYLINE
  5
52
330
17
100
AcDbEntity
  8
0
100
AcDbPolyline
 90
14
 70
1
 10
433.0
 20
395.5
 10
432.5
 20
395.0
 10
432.5
 20
394.5
 10
432.0
 20
394.0
 10
432.0
 20
392.5
 10
431.5
 20
392.0
 10
431.5
 20
389.5
 10
432.5
 20
388.5
 10
434.5
 20
388.5
 10
435.5
 20
389.5
 10
435.5
 20
393.5
 10
435.0
 20
394.0
 10
435.0
 20
395.0
 10
434.5
 20
395.5
  0
LWPOLYLINE
  5
53
330
17
100
AcDbEntity
  8
0
100
AcDbPolyline
 90
11
 70
1
 10
437.5
 20
404.0
 10
437.5
 20
403.5
 10
437.0
 20
403.0
 10
437.0
 20
402.5
 10
437.5
 20
402.0
 10
437.5
 20
401.5
 10
438.0
 20
401.0
 10
439.0
 20
401.0
 10
439.5
 20
401.5
 10
439.5
 20
402.5
 10
438.0
 20
404.0
  0
LWPOLYLINE
  5
54
330
17
100
AcDbEntity
  8
0
100
AcDbPolyline
 90
46
 70
1
 10
433.5
 20
413.5
 10
433.0
 20
413.0
 10
432.5
 20
413.0
 10
432.5
 20
412.5
 10
432.0
 20
412.0
 10
432.0
 20
410.0
 10
431.5
 20
409.5
 10
431.5
 20
407.5
 10
430.5
 20
406.5
 10
430.0
 20
406.5
 10
429.5
 20
406.0
 10
429.0
 20
406.0
 10
427.0
 20
404.0
 10
427.0
 20
403.5
 10
425.5
 20
402.0
 10
425.0
 20
402.0
 10
424.5
 20
401.5
 10
424.5
 20
401.0
 10
424.0
 20
400.5
 10
424.0
 20
400.0
 10
424.5
 20
399.5
 10
424.5
 20
399.0
 10
425.0
 20
398.5
 10
425.0
 20
397.5
 10
425.5
 20
397.0
 10
425.5
 20
396.5
 10
426.0
 20
396.0
 10
426.5
 20
396.0
 10
427.0
 20
395.5
 10
427.5
 20
396.0
 10
429.0
 20
396.0
 10
429.5
 20
396.5
 10
430.5
 20
396.5
 10
432.0
 20
398.0
 10
432.0
 20
401.0
 10
432.5
 20
401.5
 10
432.5
 20
405.5
 10
433.0
 20
406.0
 10
433.0
 20
406.5
 10
434.5
 20
408.0
 10
434.5
 20
411.0
 10
435.0
 20
411.5
 10
435.0
 20
412.0
 10
434.5
 20
412.5
 10
434.5
 20
413.0
 10
434.0
 20
413.0
  0
LWPOLYLINE
  5
55
330
17
100
AcDbEntity
  8
0
100
AcDbPolyline
 90
763
 70
1
 10
315.0
 20
444.5
 10
314.0
 20
443.5
 10
314.0
 20
442.0
 10
314.5
 20
441.5
 10
314.5
 20
441.0
 10
315.5
 20
440.0
 10
315.5
 20
439.0
 10
316.0
 20
438.5
 10
316.0
 20
436.0
 10
316.5
 20
435.5
 10
316.5
 20
434.0
 10
317.0
 20
433.5
 10
317.0
 20
433.0
 10
317.5
 20
432.5
 10
317.5
 20
430.5
 10
318.0
 20
430.0
 10
318.0
 20
429.0
 10
321.5
 20
425.5
 10
321.5
 20
420.0
 10
320.5
 20
419.0
 10
320.0
 20
419.0
 10
319.0
 20
418.0
 10
319.0
 20
417.5
 10
318.5
 20
417.0
 10
318.5
 20
416.5
 10
319.0
 20
416.0
 10
319.0
 20
414.5
 10
319.5
 20
414.0
 10
319.5
 20
410.0
 10
319.0
 20
409.5
 10
319.0
 20
408.5
 10
318.0
 20
407.5
 10
317.5
 20
408.0
 10
317.5
 20
409.0
 10
317.0
 20
409.5
 10
317.0
 20
410.5
 10
316.5
 20
411.0
 10
316.5
 20
411.5
 10
316.0
 20
411.5
 10
315.5
 20
411.0
 10
315.5
 20
410.0
 10
314.5
 20
409.0
 10
314.5
 20
408.5
 10
313.0
 20
407.0
 10
312.5
 20
407.0
 10
312.0
 20
406.5
 10
311.5
 20
406.5
 10
311.0
 20
407.0
 10
310.5
 20
407.0
 10
310.0
 20
407.5
 10
309.5
 20
407.0
 10
309.5
 20
405.5
 10
310.0
 20
405.0
 10
310.0
 20
403.5
 10
308.5
 20
402.0
 10
308.0
 20
402.0
 10
307.5
 20
401.5
 10
307.0
 20
401.5
 10
307.0
 20
399.0
 10
305.0
 20
397.0
 10
304.5
 20
397.0
 10
304.0
 20
396.5
 10
304.0
 20
396.0
 10
303.5
 20
395.5
 10
303.5
 20
395.0
 10
303.0
 20
394.5
 10
303.0
 20
392.0
 10
305.0
 20
390.0
 10
305.0
 20
389.0
 10
303.0
 20
387.0
 10
302.0
 20
387.0
 10
301.5
 20
386.5
 10
300.5
 20
386.5
 10
300.0
 20
386.0
 10
299.0
 20
386.0
 10
298.0
 20
385.0
 10
297.5
 20
385.0
 10
296.5
 20
384.0
 10
296.5
 20
383.5
 10
296.0
 20
383.0
 10
296.0
 20
382.5
 10
295.5
 20
382.0
 10
295.5
 20
381.0
 10
296.0
 20
380.5
 10
296.0
 20
380.0
 10
296.5
 20
379.5
 10
296.5
 20
377.5
 10
295.5
 20
376.5
 10
295.0
 20
376.5
 10
293.0
 20
374.5
 10
293.0
 20
374.0
 10
292.5
 20
373.5
 10
292.5
 20
373.0
 10
292.0
 20
372.5
 10
292.0
 20
372.0
 10
291.5
 20
371.5
 10
291.5
 20
368.5
 10
291.0
 20
368.0
 10
291.0
 20
362.0
 10
290.5
 20
361.5
 10
290.5
 20
361.0
 10
288.0
 20
358.5
 10
288.0
 20
356.5
 10
287.5
 20
356.0
 10
287.5
 20
354.5
 10
287.0
 20
354.0
 10
287.0
 20
353.0
 10
286.0
 20
352.0
 10
285.5
 20
352.5
 10
285.5
 20
353.0
 10
285.0
 20
353.5
 10
285.0
 20
354.5
 10
284.0
 20
355.5
 10
284.0
 20
356.0
 10
283.5
 20
356.0
 10
283.5
 20
355.5
 10
283.0
 20
355.0
 10
283.0
 20
354.0
 10
282.5
 20
353.5
 10
282.5
 20
353.0
 10
282.0
 20
352.5
 10
282.0
 20
352.0
 10
281.5
 20
351.5
 10
281.5
 20
351.0
 10
281.0
 20
350.5
 10
281.0
 20
350.0
 10
280.0
 20
349.0
 10
280.0
 20
348.5
 10
279.5
 20
348.0
 10
279.5
 20
346.5
 10
280.0
 20
346.0
 10
282.5
 20
346.0
 10
283.5
 20
345.0
 10
283.5
 20
344.5
 10
284.5
 20
343.5
 10
284.5
 20
342.5
 10
284.0
 20
342.0
 10
281.5
 20
342.0
 10
281.0
 20
341.5
 10
280.5
 20
342.0
 10
280.0
 20
341.5
 10
279.5
 20
341.5
 10
279.0
 20
341.0
 10
278.0
 20
341.0
 10
277.5
 20
340.5
 10
277.0
 20
340.5
 10
276.5
 20
340.0
 10
276.5
 20
337.0
 10
276.0
 20
336.5
 10
276.0
 20
336.0
 10
275.5
 20
335.5
 10
275.5
 20
335.0
 10
275.0
 20
334.5
 10
275.0
 20
333.5
 10
274.5
 20
333.0
 10
274.5
 20
321.5
 10
274.0
 20
321.0
 10
274.0
 20
320.0
 10
273.5
 20
319.5
 10
273.5
 20
317.5
 10
273.0
 20
317.0
 10
273.0
 20
315.5
 10
272.0
 20
314.5
 10
272.0
 20
314.0
 10
270.0
 20
312.0
 10
270.0
 20
311.0
 10
269.5
 20
310.5
 10
269.5
 20
309.0
 10
268.5
 20
308.0
 10
268.5
 20
307.5
 10
268.0
 20
307.0
 10
268.0
 20
306.5
 10
267.5
 20
306.0
 10
267.5
 20
305.5
 10
267.0
 20
305.0
 10
267.0
 20
304.0
 10
266.5
 20
303.5
 10
266.5
 20
303.0
 10
264.0
 20
300.5
 10
263.0
 20
300.5
 10
262.5
 20
300.0
 10
261.5
 20
300.0
 10
260.5
 20
299.0
 10
260.0
 20
299.0
 10
259.5
 20
298.5
 10
259.5
 20
298.0
 10
259.0
 20
297.5
 10
259.0
 20
297.0
 10
258.5
 20
296.5
 10
258.5
 20
296.0
 10
255.5
 20
293.0
 10
255.5
 20
292.5
 10
253.5
 20
290.5
 10
252.0
 20
290.5
 10
251.0
 20
291.5
 10
251.0
 20
295.0
 10
250.5
 20
295.5
 10
250.5
 20
296.0
 10
250.0
 20
296.5
 10
250.0
 20
297.0
 10
249.5
 20
297.0
 10
249.0
 20
297.5
 10
248.0
 20
297.5
 10
247.5
 20
297.0
 10
246.5
 20
297.0
 10
246.0
 20
296.5
 10
245.5
 20
296.5
 10
245.0
 20
296.0
 10
244.0
 20
296.0
 10
243.5
 20
295.5
 10
242.5
 20
295.5
 10
242.0
 20
295.0
 10
236.5
 20
295.0
 10
236.0
 20
294.5
 10
235.0
 20
294.5
 10
234.5
 20
294.0
 10
233.5
 20
294.0
 10
233.0
 20
293.5
 10
232.5
 20
293.5
 10
232.0
 20
293.0
 10
231.5
 20
293.0
 10
231.0
 20
292.5
 10
230.5
 20
292.5
 10
230.0
 20
292.0
 10
229.5
 20
292.0
 10
229.0
 20
291.5
 10
228.5
 20
291.5
 10
226.5
 20
289.5
 10
226.0
 20
289.5
 10
225.5
 20
289.0
 10
225.0
 20
289.0
 10
224.0
 20
288.0
 10
223.5
 20
288.0
 10
222.5
 20
287.0
 10
222.0
 20
287.0
 10
221.5
 20
286.5
 10
220.0
 20
286.5
 10
219.5
 20
286.0
 10
218.5
 20
286.0
 10
218.0
 20
285.5
 10
217.5
 20
285.5
 10
217.0
 20
285.0
 10
216.0
 20
285.0
 10
215.5
 20
284.5
 10
215.0
 20
284.5
 10
214.5
 20
284.0
 10
214.0
 20
284.0
 10
213.0
 20
283.0
 10
212.5
 20
283.0
 10
207.5
 20
278.0
 10
207.0
 20
278.0
 10
205.5
 20
276.5
 10
205.0
 20
276.5
 10
204.5
 20
276.0
 10
204.0
 20
276.0
 10
203.5
 20
275.5
 10
202.5
 20
275.5
 10
202.0
 20
275.0
 10
201.0
 20
275.0
 10
200.5
 20
274.5
 10
200.0
 20
274.5
 10
199.5
 20
274.0
 10
198.0
 20
274.0
 10
197.5
 20
273.5
 10
196.5
 20
273.5
 10
196.0
 20
273.0
 10
195.5
 20
273.0
 10
194.5
 20
272.0
 10
193.0
 20
272.0
 10
192.5
 20
271.5
 10
191.0
 20
271.5
 10
190.0
 20
270.5
 10
189.5
 20
270.5
 10
188.0
 20
269.0
 10
187.5
 20
269.0
 10
187.0
 20
268.5
 10
186.5
 20
268.5
 10
186.0
 20
268.0
 10
185.5
 20
268.0
 10
185.0
 20
267.5
 10
184.0
 20
267.5
 10
183.5
 20
267.0
 10
181.5
 20
267.0
 10
181.0
 20
267.5
 10
178.0
 20
267.5
 10
177.5
 20
267.0
 10
177.0
 20
267.0
 10
176.0
 20
266.0
 10
175.5
 20
266.0
 10
174.0
 20
264.5
 10
174.0
 20
264.0
 10
172.0
 20
262.0
 10
171.5
 20
262.0
 10
171.0
 20
261.5
 10
170.0
 20
261.5
 10
169.5
 20
262.0
 10
168.5
 20
262.0
 10
167.5
 20
263.0
 10
167.5
 20
263.5
 10
166.5
 20
264.5
 10
165.5
 20
264.5
 10
165.0
 20
265.0
 10
164.5
 20
264.5
 10
164.0
 20
264.5
 10
163.5
 20
264.0
 10
163.0
 20
264.0
 10
162.0
 20
263.0
 10
161.5
 20
263.0
 10
161.0
 20
262.5
 10
160.5
 20
262.5
 10
158.5
 20
260.5
 10
158.5
 20
260.0
 10
157.5
 20
259.0
 10
157.5
 20
258.5
 10
156.5
 20
257.5
 10
156.0
 20
257.5
 10
155.0
 20
256.5
 10
154.5
 20
256.5
 10
154.0
 20
256.0
 10
153.5
 20
256.0
 10
152.5
 20
255.0
 10
152.5
 20
254.0
 10
152.0
 20
253.5
 10
152.0
 20
251.5
 10
151.5
 20
251.0
 10
151.5
 20
249.5
 10
152.0
 20
249.0
 10
152.0
 20
248.5
 10
154.0
 20
246.5
 10
154.0
 20
246.0
 10
155.5
 20
244.5
 10
156.0
 20
244.5
 10
157.5
 20
243.0
 10
157.5
 20
241.0
 10
156.5
 20
240.0
 10
156.0
 20
240.0
 10
155.5
 20
239.5
 10
154.5
 20
239.5
 10
154.0
 20
239.0
 10
153.0
 20
239.0
 10
151.0
 20
237.0
 10
151.0
 20
236.5
 10
150.5
 20
236.0
 10
150.5
 20
232.5
 10
151.5
 20
231.5
 10
151.5
 20
231.0
 10
152.0
 20
231.0
 10
153.5
 20
229.5
 10
154.0
 20
229.5
 10
155.0
 20
228.5
 10
155.5
 20
228.5
 10
156.0
 20
228.0
 10
158.0
 20
228.0
 10
158.5
 20
227.5
 10
162.0
 20
227.5
 10
162.5
 20
228.0
 10
163.0
 20
228.0
 10
163.5
 20
228.5
 10
163.5
 20
229.0
 10
163.0
 20
229.5
 10
163.0
 20
230.0
 10
162.5
 20
230.5
 10
162.5
 20
232.0
 10
163.0
 20
232.5
 10
163.0
 20
233.5
 10
164.0
 20
234.5
 10
164.0
 20
235.0
 10
166.5
 20
237.5
 10
167.0
 20
237.5
 10
168.0
 20
238.5
 10
168.5
 20
238.5
 10
169.0
 20
239.0
 10
170.0
 20
239.0
 10
170.5
 20
239.5
 10
172.0
 20
239.5
 10
172.5
 20
240.0
 10
173.5
 20
240.0
 10
174.0
 20
239.5
 10
179.0
 20
239.5
 10
179.5
 20
239.0
 10
180.0
 20
239.0
 10
181.0
 20
238.0
 10
181.0
 20
237.5
 10
181.5
 20
237.0
 10
181.5
 20
235.5
 10
181.0
 20
235.0
 10
181.0
 20
234.0
 10
180.5
 20
233.5
 10
180.5
 20
232.0
 10
181.5
 20
231.0
 10
184.0
 20
231.0
 10
184.5
 20
230.5
 10
186.0
 20
230.5
 10
186.5
 20
230.0
 10
187.0
 20
230.0
 10
188.5
 20
228.5
 10
188.5
 20
228.0
 10
189.0
 20
227.5
 10
189.0
 20
225.5
 10
189.5
 20
225.0
 10
189.5
 20
224.0
 10
190.0
 20
223.5
 10
190.0
 20
223.0
 10
190.5
 20
222.5
 10
190.5
 20
216.5
 10
191.0
 20
216.0
 10
191.0
 20
214.5
 10
191.5
 20
214.0
 10
191.5
 20
213.5
 10
192.5
 20
212.5
 10
193.5
 20
212.5
 10
194.0
 20
212.0
 10
197.0
 20
212.0
 10
197.5
 20
212.5
 10
199.0
 20
212.5
 10
199.5
 20
213.0
 10
200.5
 20
213.0
 10
201.5
 20
214.0
 10
202.0
 20
214.0
 10
202.5
 20
214.5
 10
203.0
 20
214.5
 10
203.5
 20
215.0
 10
204.0
 20
215.0
 10
204.5
 20
215.5
 10
205.0
 20
215.5
 10
206.0
 20
216.5
 10
206.5
 20
216.5
 10
207.5
 20
217.5
 10
208.0
 20
217.5
 10
209.0
 20
218.5
 10
216.5
 20
218.5
 10
217.0
 20
218.0
 10
219.5
 20
218.0
 10
220.0
 20
218.5
 10
223.0
 20
218.5
 10
223.5
 20
219.0
 10
224.0
 20
219.0
 10
224.5
 20
219.5
 10
225.0
 20
219.5
 10
226.0
 20
220.5
 10
226.5
 20
220.5
 10
227.5
 20
221.5
 10
228.0
 20
221.5
 10
228.5
 20
222.0
 10
236.5
 20
222.0
 10
237.0
 20
222.5
 10
238.5
 20
222.5
 10
239.0
 20
223.0
 10
239.5
 20
223.0
 10
240.5
 20
224.0
 10
241.0
 20
224.0
 10
242.0
 20
225.0
 10
242.5
 20
225.0
 10
243.0
 20
225.5
 10
243.5
 20
225.5
 10
244.0
 20
226.0
 10
244.5
 20
226.0
 10
246.5
 20
228.0
 10
247.0
 20
228.0
 10
247.5
 20
228.5
 10
249.0
 20
228.5
 10
249.5
 20
229.0
 10
250.0
 20
229.0
 10
251.5
 20
230.5
 10
251.5
 20
231.0
 10
252.0
 20
231.5
 10
252.0
 20
232.0
 10
253.5
 20
233.5
 10
252.0
 20
235.0
 10
251.5
 20
235.0
 10
251.0
 20
235.5
 10
249.5
 20
235.5
 10
249.0
 20
236.0
 10
246.5
 20
236.0
 10
246.0
 20
236.5
 10
245.0
 20
236.5
 10
244.0
 20
237.5
 10
244.0
 20
238.5
 10
247.0
 20
241.5
 10
247.0
 20
242.0
 10
247.5
 20
242.5
 10
247.5
 20
243.0
 10
249.0
 20
244.5
 10
249.0
 20
245.0
 10
249.5
 20
245.5
 10
250.0
 20
245.5
 10
250.0
 20
246.0
 10
251.0
 20
247.0
 10
251.0
 20
251.5
 10
251.5
 20
252.0
 10
251.5
 20
253.0
 10
251.0
 20
253.5
 10
251.0
 20
255.0
 10
252.0
 20
256.0
 10
252.5
 20
256.0
 10
253.5
 20
255.0
 10
254.0
 20
255.0
 10
255.0
 20
254.0
 10
257.0
 20
254.0
 10
257.5
 20
254.5
 10
258.0
 20
254.5
 10
259.5
 20
256.0
 10
259.5
 20
256.5
 10
262.5
 20
259.5
 10
262.5
 20
260.0
 10
264.0
 20
261.5
 10
264.5
 20
261.5
 10
267.0
 20
264.0
 10
267.5
 20
264.0
 10
268.5
 20
265.0
 10
269.0
 20
265.0
 10
269.5
 20
265.5
 10
270.0
 20
265.5
 10
270.5
 20
266.0
 10
275.0
 20
266.0
 10
277.5
 20
268.5
 10
277.5
 20
270.5
 10
277.0
 20
271.0
 10
277.0
 20
271.5
 10
276.5
 20
272.0
 10
276.5
 20
272.5
 10
276.0
 20
273.0
 10
273.0
 20
273.0
 10
271.5
 20
274.5
 10
271.5
 20
278.0
 10
272.0
 20
278.5
 10
272.0
 20
279.0
 10
273.0
 20
280.0
 10
273.5
 20
280.0
 10
274.0
 20
280.5
 10
274.5
 20
280.5
 10
276.0
 20
282.0
 10
276.0
 20
282.5
 10
279.0
 20
285.5
 10
279.5
 20
285.5
 10
281.5
 20
287.5
 10
281.5
 20
288.5
 10
282.0
 20
289.0
 10
282.0
 20
290.0
 10
284.0
 20
292.0
 10
284.5
 20
292.0
 10
285.0
 20
292.5
 10
285.5
 20
292.5
 10
286.0
 20
293.0
 10
287.0
 20
293.0
 10
287.5
 20
293.5
 10
289.0
 20
293.5
 10
289.5
 20
294.0
 10
290.5
 20
294.0
 10
291.0
 20
294.5
 10
291.5
 20
294.5
 10
292.0
 20
295.0
 10
292.5
 20
295.0
 10
293.5
 20
296.0
 10
293.5
 20
296.5
 10
294.5
 20
297.5
 10
294.5
 20
298.0
 10
295.5
 20
299.0
 10
295.5
 20
299.5
 10
296.5
 20
300.5
 10
296.5
 20
301.0
 10
298.0
 20
302.5
 10
300.0
 20
302.5
 10
301.0
 20
303.5
 10
301.0
 20
306.0
 10
300.5
 20
306.5
 10
300.5
 20
307.0
 10
300.0
 20
307.5
 10
300.0
 20
308.0
 10
299.5
 20
308.5
 10
299.5
 20
309.0
 10
299.0
 20
309.5
 10
299.0
 20
312.0
 10
300.5
 20
313.5
 10
301.5
 20
313.5
 10
302.0
 20
314.0
 10
303.0
 20
314.0
 10
303.5
 20
313.5
 10
304.5
 20
313.5
 10
305.0
 20
314.0
 10
304.5
 20
314.5
 10
304.5
 20
315.0
 10
304.0
 20
315.5
 10
304.0
 20
318.0
 10
305.5
 20
319.5
 10
307.5
 20
319.5
 10
308.0
 20
319.0
 10
309.0
 20
319.0
 10
309.5
 20
319.5
 10
309.5
 20
330.5
 10
309.0
 20
331.0
 10
309.0
 20
331.5
 10
308.5
 20
331.5
 10
308.0
 20
332.0
 10
307.0
 20
331.0
 10
307.0
 20
330.5
 10
306.0
 20
329.5
 10
305.5
 20
329.5
 10
304.0
 20
331.0
 10
304.0
 20
334.0
 10
304.5
 20
334.5
 10
304.5
 20
335.0
 10
305.0
 20
335.5
 10
307.0
 20
335.5
 10
307.5
 20
336.0
 10
308.0
 20
336.0
 10
308.0
 20
340.5
 10
309.5
 20
342.0
 10
310.0
 20
342.0
 10
310.5
 20
342.5
 10
310.5
 20
343.0
 10
311.0
 20
343.5
 10
311.0
 20
345.0
 10
310.5
 20
345.5
 10
310.5
 20
346.5
 10
310.0
 20
347.0
 10
310.0
 20
347.5
 10
309.5
 20
348.0
 10
309.5
 20
348.5
 10
310.0
 20
349.0
 10
310.0
 20
349.5
 10
312.0
 20
351.5
 10
312.0
 20
352.0
 10
313.0
 20
353.0
 10
313.0
 20
356.0
 10
312.5
 20
356.5
 10
312.5
 20
357.0
 10
312.0
 20
357.5
 10
312.5
 20
358.0
 10
312.5
 20
358.5
 10
313.5
 20
359.5
 10
316.5
 20
359.5
 10
317.5
 20
358.5
 10
317.5
 20
358.0
 10
318.0
 20
357.5
 10
318.0
 20
356.5
 10
318.5
 20
356.0
 10
318.5
 20
354.0
 10
319.0
 20
353.5
 10
319.0
 20
349.5
 10
319.5
 20
349.0
 10
319.5
 20
348.5
 10
321.0
 20
347.0
 10
322.0
 20
347.0
 10
322.5
 20
346.5
 10
323.5
 20
346.5
 10
324.0
 20
346.0
 10
324.5
 20
346.0
 10
325.0
 20
346.5
 10
325.5
 20
346.5
 10
326.0
 20
347.0
 10
326.0
 20
351.5
 10
327.5
 20
353.0
 10
327.5
 20
353.5
 10
328.0
 20
354.0
 10
328.0
 20
354.5
 10
328.5
 20
355.0
 10
328.5
 20
355.5
 10
331.0
 20
358.0
 10
331.0
 20
365.0
 10
331.5
 20
365.5
 10
331.5
 20
366.5
 10
332.0
 20
367.0
 10
332.0
 20
367.5
 10
332.5
 20
368.0
 10
332.5
 20
368.5
 10
333.0
 20
369.0
 10
333.0
 20
369.5
 10
333.5
 20
370.0
 10
333.5
 20
371.0
 10
334.0
 20
371.5
 10
334.0
 20
372.5
 10
334.5
 20
373.0
 10
334.5
 20
374.0
 10
335.0
 20
374.5
 10
335.0
 20
375.0
 10
335.5
 20
375.5
 10
335.5
 20
378.5
 10
336.5
 20
379.5
 10
336.5
 20
380.0
 10
338.5
 20
382.0
 10
338.5
 20
383.0
 10
340.5
 20
385.0
 10
342.0
 20
385.0
 10
342.5
 20
385.5
 10
343.0
 20
385.5
 10
343.5
 20
386.0
 10
344.0
 20
386.0
 10
346.0
 20
388.0
 10
347.0
 20
388.0
 10
347.5
 20
388.5
 10
348.0
 20
388.5
 10
348.0
 20
390.0
 10
347.5
 20
390.5
 10
347.5
 20
391.0
 10
347.0
 20
391.5
 10
347.0
 20
392.5
 10
346.5
 20
393.0
 10
346.5
 20
393.5
 10
346.0
 20
394.0
 10
346.0
 20
394.5
 10
345.5
 20
395.0
 10
345.5
 20
395.5
 10
345.0
 20
396.0
 10
345.0
 20
396.5
 10
344.5
 20
397.0
 10
344.5
 20
397.5
 10
342.5
 20
399.5
 10
342.0
 20
399.5
 10
339.5
 20
402.0
 10
339.5
 20
402.5
 10
339.0
 20
403.0
 10
339.0
 20
403.5
 10
338.0
 20
404.5
 10
338.0
 20
405.0
 10
337.5
 20
405.0
 10
336.0
 20
406.5
 10
335.5
 20
406.5
 10
335.0
 20
407.0
 10
335.0
 20
407.5
 10
334.0
 20
408.5
 10
334.0
 20
409.0
 10
333.5
 20
409.5
 10
333.5
 20
410.0
 10
333.0
 20
410.5
 10
333.0
 20
411.0
 10
332.5
 20
411.5
 10
332.5
 20
412.5
 10
332.0
 20
413.0
 10
332.0
 20
414.0
 10
331.5
 20
414.5
 10
331.5
 20
417.0
 10
331.0
 20
417.5
 10
331.0
 20
418.5
 10
330.5
 20
419.0
 10
330.5
 20
419.5
 10
329.5
 20
420.5
 10
329.5
 20
421.0
 10
326.5
 20
424.0
 10
326.5
 20
424.5
 10
325.5
 20
425.5
 10
325.5
 20
426.5
 10
325.0
 20
427.0
 10
325.0
 20
428.0
 10
324.5
 20
428.5
 10
324.5
 20
429.5
 10
324.0
 20
430.0
 10
324.0
 20
430.5
 10
322.5
 20
432.0
 10
322.5
 20
432.5
 10
322.0
 20
433.0
 10
322.0
 20
433.5
 10
321.5
 20
434.0
 10
321.5
 20
434.5
 10
321.0
 20
435.0
 10
321.0
 20
436.0
 10
320.5
 20
436.5
 10
320.5
 20
440.0
 10
319.5
 20
441.0
 10
319.5
 20
441.5
 10
318.0
 20
443.0
 10
318.0
 20
443.5
 10
317.0
 20
444.5
  0
LWPOLYLINE
  5
56
330
17
100
AcDbEntity
  8
0
100
AcDbPolyline
 90
7
 70
1
 10
200.0
 20
237.5
 10
201.0
 20
236.5
 10
201.0
 20
236.0
 10
200.5
 20
235.5
 10
199.5
 20
235.5
 10
199.0
 20
236.0
 10
199.0
 20
236.5
  0
LWPOLYLINE
  5
57
330
17
100
AcDbEntity
  8
0
100
AcDbPolyline
 90
32
 70
1
 10
190.5
 20
250.0
 10
194.5
 20
250.0
 10
195.0
 20
249.5
 10
195.5
 20
249.5
 10
196.0
 20
249.0
 10
196.5
 20
249.0
 10
197.0
 20
248.5
 10
198.0
 20
248.5
 10
198.5
 20
249.0
 10
199.0
 20
249.0
 10
199.5
 20
249.5
 10
202.0
 20
249.5
 10
203.0
 20
248.5
 10
203.0
 20
247.5
 10
201.5
 20
246.0
 10
200.5
 20
246.0
 10
200.0
 20
245.5
 10
198.5
 20
245.5
 10
198.0
 20
245.0
 10
196.0
 20
245.0
 10
195.5
 20
244.5
 10
195.0
 20
244.5
 10
193.5
 20
243.0
 10
193.5
 20
242.0
 10
192.0
 20
240.5
 10
191.5
 20
240.5
 10
191.0
 20
241.0
 10
190.5
 20
241.0
 10
189.0
 20
242.5
 10
189.0
 20
244.5
 10
188.5
 20
245.0
 10
188.5
 20
248.0
  0
LWPOLYLINE
  5
58
330
17
100
AcDbEntity
  8
0
100
AcDbPolyline
 90
15
 70
1
 10
237.5
 20
255.0
 10
239.5
 20
255.0
 10
241.0
 20
253.5
 10
241.0
 20
253.0
 10
241.5
 20
252.5
 10
241.5
 20
251.0
 10
240.0
 20
249.5
 10
236.5
 20
249.5
 10
236.0
 20
250.0
 10
235.5
 20
250.0
 10
235.0
 20
250.5
 10
235.0
 20
251.0
 10
234.5
 20
251.5
 10
235.0
 20
252.0
 10
235.0
 20
252.5
  0
LWPOLYLINE
  5
59
330
17
100
AcDbEntity
  8
0
100
AcDbPolyline
 90
12
 70
1
 10
185.0
 20
260.5
 10
185.5
 20
260.5
 10
186.0
 20
260.0
 10
186.5
 20
260.0
 10
187.5
 20
259.0
 10
187.5
 20
258.0
 10
186.0
 20
256.5
 10
185.5
 20
256.5
 10
185.0
 20
256.0
 10
184.0
 20
256.0
 10
183.0
 20
257.0
 10
183.0
 20
258.5
  0
LWPOLYLINE
  5
5A
330
17
100
AcDbEntity
  8
0
100
AcDbPolyline
 90
13
 70
1
 10
202.0
 20
265.0
 10
202.5
 20
265.5
 10
208.0
 20
265.5
 10
209.0
 20
264.5
 10
208.5
 20
264.0
 10
208.0
 20
264.0
 10
207.5
 20
263.5
 10
204.0
 20
263.5
 10
203.5
 20
263.0
 10
202.0
 20
263.0
 10
201.0
 20
264.0
 10
201.0
 20
264.5
 10
201.5
 20
265.0
  0
LWPOLYLINE
  5
5B
330
17
100
AcDbEntity
  8
0
100
AcDbPolyline
 90
10
 70
1
 10
451.5
 20
448.0
 10
451.0
 20
447.5
 10
450.5
 20
447.5
 10
450.0
 20
447.0
 10
450.0
 20
445.5
 10
450.5
 20
445.0
 10
452.0
 20
445.0
 10
453.0
 20
446.0
 10
453.0
 20
447.5
 10
452.5
 20
448.0
  0
LWPOLYLINE
  5
5C
330
17
100
AcDbEntity
  8
0
100
AcDbPolyline
 90
12
 70
1
 10
443.5
 20
461.0
 10
443.0
 20
460.5
 10
443.0
 20
459.0
 10
444.0
 20
458.0
 10
444.0
 20
457.5
 10
444.5
 20
457.0
 10
446.0
 20
457.0
 10
446.5
 20
457.5
 10
446.5
 20
458.0
 10
447.0
 20
458.5
 10
447.0
 20
460.5
 10
446.5
 20
461.0
  0
LWPOLYLINE
  5
5D
330
17
100
AcDbEntity
  8
0
100
AcDbPolyline
 90
23
 70
1
 10
449.5
 20
464.5
 10
449.0
 20
464.0
 10
449.0
 20
463.5
 10
450.0
 20
462.5
 10
450.5
 20
462.5
 10
451.5
 20
461.5
 10
451.5
 20
460.5
 10
452.0
 20
460.0
 10
452.0
 20
459.5
 10
454.5
 20
457.0
 10
456.5
 20
457.0
 10
457.5
 20
458.0
 10
457.5
 20
458.5
 10
456.5
 20
459.5
 10
456.5
 20
460.5
 10
456.0
 20
461.0
 10
456.0
 20
461.5
 10
455.5
 20
462.0
 10
455.5
 20
462.5
 10
455.0
 20
463.0
 10
454.5
 20
463.0
 10
454.0
 20
463.5
 10
450.5
 20
463.5
  0
LWPOLYLINE
  5
5E
330
17
100
AcDbEntity
  8
0
100
AcDbPolyline
 90
17
 70
1
 10
437.5
 20
469.5
 10
436.5
 20
468.5
 10
436.5
 20
467.5
 10
437.0
 20
467.0
 10
437.0
 20
466.5
 10
437.5
 20
466.0
 10
437.5
 20
465.5
 10
438.0
 20
465.5
 10
438.5
 20
465.0
 10
439.0
 20
465.0
 10
439.5
 20
464.5
 10
441.0
 20
464.5
 10
441.5
 20
465.0
 10
441.5
 20
466.5
 10
440.5
 20
467.5
 10
440.5
 20
468.0
 10
439.0
 20
469.5
  0
LWPOLYLINE
  5
5F
330
17
100
AcDbEntity
  8
0
100
AcDbPolyline
 90
13
 70
1
 10
451.5
 20
471.5
 10
451.0
 20
471.0
 10
450.5
 20
471.0
 10
449.5
 20
470.0
 10
449.5
 20
467.5
 10
450.5
 20
467.5
 10
451.0
 20
468.0
 10
451.5
 20
468.0
 10
452.0
 20
468.5
 10
452.0
 20
469.0
 10
452.5
 20
469.5
 10
452.5
 20
471.0
 10
452.0
 20
471.0
  0
LWPOLYLINE
  5
60
330
17
100
AcDbEntity
  8
0
100
AcDbPolyline
 90
8
 70
1
 10
488.0
 20
500.0
 10
490.5
 20
497.5
 10
494.0
 20
497.5
 10
494.5
 20
498.0
 10
494.5
 20
498.5
 10
494.0
 20
499.0
 10
494.0
 20
499.5
 10
493.5
 20
500.0
  0
LWPOLYLINE
  5
61
330
17
100
AcDbEntity
  8
0
100
AcDbPolyline
 90
16
 70
1
 10
414.0
 20
500.0
 10
413.5
 20
499.5
 10
413.5
 20
499.0
 10
413.0
 20
498.5
 10
413.0
 20
496.0
 10
412.5
 20
495.5
 10
412.5
 20
492.5
 10
413.0
 20
492.0
 10
413.5
 20
492.0
 10
414.0
 20
492.5
 10
414.0
 20
493.0
 10
414.5
 20
493.5
 10
414.5
 20
494.5
 10
416.5
 20
496.5
 10
416.5
 20
499.5
 10
416.0
 20
500.0
  0
LWPOLYLINE
  5
62
330
17
100
AcDbEntity
  8
0
100
AcDbPolyline
 90
1428
 70
1
 10
321.5
 20
500.0
 10
321.0
 20
499.5
 10
321.0
 20
498.5
 10
320.5
 20
498.0
 10
320.5
 20
497.0
 10
320.0
 20
496.5
 10
320.0
 20
495.0
 10
319.5
 20
494.5
 10
319.5
 20
492.5
 10
319.0
 20
492.0
 10
319.0
 20
491.0
 10
318.5
 20
490.5
 10
318.5
 20
489.0
 10
318.0
 20
488.5
 10
318.0
 20
487.0
 10
318.5
 20
486.5
 10
318.0
 20
486.0
 10
318.0
 20
484.5
 10
317.5
 20
484.0
 10
317.5
 20
482.5
 10
317.0
 20
482.0
 10
317.0
 20
480.0
 10
316.5
 20
479.5
 10
316.5
 20
477.5
 10
316.0
 20
477.0
 10
316.0
 20
473.5
 10
316.5
 20
473.0
 10
316.5
 20
472.5
 10
316.0
 20
472.0
 10
316.0
 20
466.0
 10
316.5
 20
465.5
 10
316.5
 20
462.0
 10
317.0
 20
461.5
 10
317.0
 20
460.5
 10
317.5
 20
460.0
 10
317.5
 20
459.0
 10
318.0
 20
458.5
 10
318.0
 20
457.5
 10
318.5
 20
457.0
 10
318.5
 20
454.5
 10
319.0
 20
454.0
 10
319.0
 20
453.5
 10
319.5
 20
453.0
 10
319.5
 20
452.5
 10
320.0
 20
452.5
 10
320.5
 20
452.0
 10
321.0
 20
452.0
 10
321.5
 20
451.5
 10
322.5
 20
451.5
 10
323.0
 20
451.0
 10
323.5
 20
451.0
 10
324.0
 20
450.5
 10
324.0
 20
450.0
 10
325.0
 20
449.0
 10
325.0
 20
448.0
 10
325.5
 20
447.5
 10
325.5
 20
446.5
 10
326.0
 20
446.0
 10
326.5
 20
446.5
 10
327.0
 20
446.5
 10
327.5
 20
447.0
 10
328.5
 20
447.0
 10
329.0
 20
447.5
 10
330.0
 20
447.5
 10
330.5
 20
447.0
 10
331.0
 20
447.0
 10
332.0
 20
446.0
 10
332.5
 20
446.0
 10
333.0
 20
445.5
 10
333.5
 20
445.5
 10
334.0
 20
445.0
 10
337.5
 20
445.0
 10
338.0
 20
445.5
 10
339.0
 20
445.5
 10
339.5
 20
445.0
 10
340.5
 20
445.0
 10
343.5
 20
442.0
 10
343.5
 20
441.5
 10
344.0
 20
441.0
 10
344.0
 20
440.5
 10
344.5
 20
440.0
 10
344.5
 20
439.5
 10
345.0
 20
439.0
 10
345.0
 20
438.5
 10
345.5
 20
438.0
 10
345.5
 20
437.5
 10
346.0
 20
437.5
 10
346.5
 20
437.0
 10
347.0
 20
437.0
 10
348.0
 20
436.0
 10
348.5
 20
436.0
 10
349.5
 20
435.0
 10
349.5
 20
434.5
 10
350.0
 20
434.0
 10
350.0
 20
433.5
 10
350.5
 20
433.0
 10
350.5
 20
431.5
 10
352.0
 20
430.0
 10
352.0
 20
429.5
 10
353.0
 20
428.5
 10
353.0
 20
428.0
 10
353.5
 20
427.5
 10
353.5
 20
424.5
 10
354.0
 20
424.0
 10
354.0
 20
423.5
 10
354.5
 20
423.0
 10
355.5
 20
423.0
 10
356.0
 20
422.5
 10
357.5
 20
422.5
 10
358.0
 20
423.0
 10
361.0
 20
423.0
 10
361.5
 20
422.5
 10
361.5
 20
421.0
 10
360.0
 20
419.5
 10
358.5
 20
419.5
 10
358.0
 20
419.0
 10
356.0
 20
419.0
 10
355.5
 20
418.5
 10
355.5
 20
418.0
 10
354.0
 20
416.5
 10
353.5
 20
416.5
 10
352.0
 20
415.0
 10
352.0
 20
413.0
 10
352.5
 20
412.5
 10
352.5
 20
411.5
 10
353.0
 20
411.0
 10
353.0
 20
410.5
 10
353.5
 20
410.0
 10
353.5
 20
407.0
 10
354.0
 20
406.5
 10
354.0
 20
406.0
 10
354.5
 20
405.5
 10
356.0
 20
405.5
 10
356.5
 20
405.0
 10
357.0
 20
405.0
 10
360.0
 20
402.0
 10
360.0
 20
401.0
 10
360.5
 20
400.5
 10
360.5
 20
400.0
 10
360.0
 20
399.5
 10
360.0
 20
398.5
 10
360.5
 20
398.0
 10
360.5
 20
396.5
 10
361.0
 20
396.0
 10
361.0
 20
395.5
 10
364.0
 20
392.5
 10
365.0
 20
392.5
 10
365.5
 20
392.0
 10
366.0
 20
392.0
 10
366.5
 20
392.5
 10
367.5
 20
392.5
 10
368.0
 20
392.0
 10
368.0
 20
391.0
 10
368.5
 20
390.5
 10
368.5
 20
388.0
 10
369.5
 20
387.0
 10
372.0
 20
387.0
 10
372.5
 20
387.5
 10
375.5
 20
387.5
 10
377.5
 20
385.5
 10
377.5
 20
385.0
 10
378.0
 20
384.5
 10
378.0
 20
384.0
 10
378.5
 20
383.5
 10
382.0
 20
383.5
 10
383.0
 20
382.5
 10
383.0
 20
382.0
 10
383.5
 20
381.5
 10
383.5
 20
380.5
 10
384.5
 20
379.5
 10
385.0
 20
379.5
 10
385.5
 20
379.0
 10
386.0
 20
379.0
 10
386.5
 20
378.5
 10
387.5
 20
378.5
 10
388.0
 20
378.0
 10
392.0
 20
378.0
 10
392.5
 20
377.5
 10
393.5
 20
377.5
 10
394.0
 20
377.0
 10
394.5
 20
377.0
 10
395.5
 20
376.0
 10
396.0
 20
376.0
 10
396.5
 20
375.5
 10
398.0
 20
375.5
 10
398.5
 20
376.0
 10
399.5
 20
376.0
 10
400.0
 20
376.5
 10
400.5
 20
376.5
 10
400.5
 20
377.0
 10
402.5
 20
379.0
 10
403.0
 20
379.0
 10
403.5
 20
378.5
 10
403.5
 20
378.0
 10
403.0
 20
377.5
 10
403.0
 20
377.0
 10
401.5
 20
375.5
 10
401.5
 20
371.5
 10
402.0
 20
371.0
 10
402.0
 20
370.0
 10
403.0
 20
369.0
 10
403.0
 20
368.5
 10
405.5
 20
366.0
 10
406.0
 20
366.0
 10
408.5
 20
363.5
 10
409.0
 20
363.5
 10
409.5
 20
363.0
 10
414.0
 20
363.0
 10
414.5
 20
362.5
 10
414.5
 20
362.0
 10
415.0
 20
361.5
 10
415.0
 20
361.0
 10
416.5
 20
359.5
 10
417.0
 20
359.5
 10
418.0
 20
358.5
 10
419.5
 20
358.5
 10
420.0
 20
358.0
 10
421.5
 20
358.0
 10
422.5
 20
357.0
 10
423.0
 20
357.0
 10
423.5
 20
356.5
 10
426.5
 20
356.5
 10
427.0
 20
356.0
 10
427.5
 20
356.0
 10
428.5
 20
355.0
 10
428.5
 20
354.5
 10
430.0
 20
353.0
 10
432.0
 20
353.0
 10
432.5
 20
352.5
 10
433.0
 20
352.5
 10
434.0
 20
351.5
 10
434.5
 20
351.5
 10
435.0
 20
351.0
 10
438.5
 20
351.0
 10
439.0
 20
350.5
 10
440.0
 20
350.5
 10
440.5
 20
350.0
 10
445.0
 20
350.0
 10
446.0
 20
349.0
 10
446.5
 20
349.0
 10
447.0
 20
348.5
 10
447.5
 20
348.5
 10
448.0
 20
349.0
 10
448.0
 20
352.5
 10
447.5
 20
353.0
 10
447.5
 20
355.5
 10
448.5
 20
356.5
 10
449.5
 20
356.5
 10
451.5
 20
354.5
 10
451.5
 20
354.0
 10
452.5
 20
353.0
 10
452.5
 20
352.0
 10
453.0
 20
351.5
 10
453.0
 20
351.0
 10
453.5
 20
350.5
 10
453.5
 20
348.0
 10
453.0
 20
347.5
 10
452.5
 20
347.5
 10
452.0
 20
347.0
 10
452.0
 20
346.5
 10
451.0
 20
345.5
 10
453.0
 20
343.5
 10
453.5
 20
343.5
 10
454.0
 20
343.0
 10
454.5
 20
343.0
 10
455.0
 20
342.5
 10
456.0
 20
342.5
 10
457.0
 20
343.5
 10
457.0
 20
344.0
 10
458.5
 20
345.5
 10
459.5
 20
345.5
 10
460.0
 20
345.0
 10
460.5
 20
345.0
 10
461.5
 20
344.0
 10
462.0
 20
344.0
 10
462.5
 20
343.5
 10
463.5
 20
343.5
 10
464.0
 20
344.0
 10
465.0
 20
344.0
 10
466.0
 20
345.0
 10
466.0
 20
346.0
 10
467.0
 20
347.0
 10
467.5
 20
346.5
 10
468.5
 20
346.5
 10
469.0
 20
346.0
 10
469.5
 20
346.0
 10
470.5
 20
345.0
 10
471.0
 20
345.0
 10
471.5
 20
344.5
 10
472.0
 20
344.5
 10
472.5
 20
344.0
 10
474.0
 20
344.0
 10
474.5
 20
344.5
 10
478.5
 20
344.5
 10
479.0
 20
344.0
 10
479.5
 20
344.0
 10
480.0
 20
343.5
 10
483.5
 20
343.5
 10
484.0
 20
344.0
 10
486.0
 20
344.0
 10
486.5
 20
344.5
 10
487.5
 20
344.5
 10
488.0
 20
345.0
 10
488.5
 20
345.0
 10
489.0
 20
345.5
 10
490.5
 20
345.5
 10
491.0
 20
346.0
 10
492.0
 20
346.0
 10
492.5
 20
346.5
 10
493.0
 20
346.5
 10
493.0
 20
347.0
 10
494.0
 20
348.0
 10
494.5
 20
348.0
 10
495.0
 20
348.5
 10
496.0
 20
348.5
 10
496.5
 20
349.0
 10
498.0
 20
349.0
 10
499.5
 20
350.5
 10
499.5
 20
367.5
 10
497.5
 20
369.5
 10
497.5
 20
370.0
 10
497.0
 20
370.5
 10
497.0
 20
371.0
 10
496.5
 20
371.0
 10
496.0
 20
370.5
 10
495.0
 20
370.5
 10
493.5
 20
369.0
 10
491.0
 20
369.0
 10
490.0
 20
370.0
 10
490.0
 20
371.5
 10
490.5
 20
372.0
 10
490.5
 20
373.0
 10
489.5
 20
374.0
 10
487.0
 20
374.0
 10
484.0
 20
371.0
 10
483.5
 20
371.0
 10
483.5
 20
370.5
 10
483.0
 20
370.0
 10
483.0
 20
369.0
 10
481.5
 20
367.5
 10
480.0
 20
367.5
 10
479.5
 20
368.0
 10
478.5
 20
368.0
 10
478.0
 20
368.5
 10
475.5
 20
368.5
 10
475.0
 20
368.0
 10
472.0
 20
368.0
 10
470.5
 20
369.5
 10
470.5
 20
370.0
 10
470.0
 20
370.5
 10
470.0
 20
371.0
 10
469.5
 20
371.5
 10
468.0
 20
371.5
 10
467.0
 20
370.5
 10
466.5
 20
370.5
 10
465.5
 20
369.5
 10
465.5
 20
367.0
 10
466.0
 20
366.5
 10
466.0
 20
366.0
 10
467.0
 20
365.0
 10
467.5
 20
365.0
 10
468.0
 20
364.5
 10
469.0
 20
364.5
 10
469.5
 20
364.0
 10
470.5
 20
364.0
 10
471.0
 20
363.5
 10
471.5
 20
363.5
 10
472.0
 20
363.0
 10
472.5
 20
363.0
 10
473.5
 20
362.0
 10
473.5
 20
361.0
 10
473.0
 20
360.5
 10
473.0
 20
358.5
 10
472.5
 20
358.0
 10
472.5
 20
354.5
 10
473.0
 20
354.0
 10
473.0
 20
351.5
 10
472.0
 20
350.5
 10
471.5
 20
350.5
 10
470.5
 20
351.5
 10
470.5
 20
352.5
 10
470.0
 20
353.0
 10
470.0
 20
355.0
 10
469.5
 20
355.5
 10
469.5
 20
356.5
 10
468.5
 20
357.5
 10
468.5
 20
358.0
 10
468.0
 20
358.5
 10
468.0
 20
359.0
 10
467.0
 20
360.0
 10
467.0
 20
360.5
 10
465.5
 20
362.0
 10
463.0
 20
362.0
 10
462.5
 20
361.5
 10
462.5
 20
361.0
 10
462.0
 20
360.5
 10
462.0
 20
360.0
 10
461.5
 20
359.5
 10
461.5
 20
359.0
 10
461.0
 20
358.5
 10
460.5
 20
358.5
 10
459.5
 20
359.5
 10
459.5
 20
361.0
 10
460.0
 20
361.5
 10
460.0
 20
364.0
 10
459.5
 20
364.5
 10
459.5
 20
365.0
 10
459.0
 20
365.5
 10
459.0
 20
366.5
 10
458.5
 20
367.0
 10
458.5
 20
368.0
 10
458.0
 20
368.5
 10
458.0
 20
369.5
 10
457.5
 20
370.0
 10
457.5
 20
371.5
 10
457.0
 20
372.0
 10
457.0
 20
374.0
 10
456.0
 20
374.0
 10
455.5
 20
373.5
 10
450.5
 20
373.5
 10
450.0
 20
374.0
 10
449.5
 20
374.0
 10
449.0
 20
373.5
 10
447.5
 20
373.5
 10
447.5
 20
373.0
 10
447.0
 20
372.5
 10
446.5
 20
372.5
 10
446.0
 20
372.0
 10
445.5
 20
372.0
 10
445.0
 20
371.5
 10
442.5
 20
371.5
 10
441.0
 20
373.0
 10
441.0
 20
374.5
 10
443.0
 20
376.5
 10
444.5
 20
376.5
 10
445.0
 20
376.0
 10
446.0
 20
376.0
 10
446.5
 20
376.5
 10
447.0
 20
376.5
 10
447.5
 20
377.0
 10
448.0
 20
377.0
 10
448.5
 20
377.5
 10
448.5
 20
378.0
 10
449.0
 20
378.5
 10
449.0
 20
379.0
 10
449.5
 20
379.5
 10
449.0
 20
380.0
 10
449.0
 20
381.0
 10
448.0
 20
382.0
 10
446.0
 20
382.0
 10
443.5
 20
379.5
 10
442.5
 20
379.5
 10
440.5
 20
381.5
 10
440.5
 20
382.0
 10
440.0
 20
382.5
 10
440.0
 20
384.0
 10
439.0
 20
385.0
 10
438.5
 20
385.0
 10
438.0
 20
385.5
 10
435.5
 20
385.5
 10
433.0
 20
383.0
 10
432.5
 20
383.0
 10
431.0
 20
384.5
 10
431.0
 20
385.0
 10
429.5
 20
386.5
 10
429.0
 20
386.5
 10
428.5
 20
387.0
 10
428.0
 20
387.0
 10
427.5
 20
387.5
 10
427.0
 20
387.5
 10
426.5
 20
388.0
 10
426.0
 20
388.0
 10
425.5
 20
388.5
 10
425.0
 20
388.5
 10
424.5
 20
388.0
 10
424.5
 20
387.5
 10
424.0
 20
387.0
 10
424.0
 20
384.0
 10
423.5
 20
383.5
 10
423.5
 20
382.5
 10
423.0
 20
382.0
 10
423.0
 20
381.5
 10
422.5
 20
381.0
 10
422.5
 20
380.5
 10
421.5
 20
379.5
 10
421.0
 20
379.5
 10
420.0
 20
380.5
 10
420.0
 20
381.0
 10
419.5
 20
381.5
 10
419.5
 20
382.0
 10
419.0
 20
382.5
 10
419.0
 20
383.0
 10
418.0
 20
384.0
 10
418.0
 20
384.5
 10
417.0
 20
385.5
 10
417.0
 20
388.5
 10
418.5
 20
390.0
 10
419.5
 20
390.0
 10
420.0
 20
389.5
 10
422.0
 20
389.5
 10
422.5
 20
390.0
 10
423.0
 20
390.0
 10
423.0
 20
392.0
 10
422.5
 20
392.5
 10
422.5
 20
393.0
 10
420.5
 20
395.0
 10
420.5
 20
395.5
 10
420.0
 20
396.0
 10
420.0
 20
398.0
 10
419.5
 20
398.5
 10
419.5
 20
399.0
 10
416.5
 20
402.0
 10
416.5
 20
402.5
 10
416.0
 20
403.0
 10
416.0
 20
403.5
 10
415.5
 20
404.0
 10
415.5
 20
404.5
 10
415.0
 20
405.0
 10
415.0
 20
405.5
 10
414.5
 20
406.0
 10
414.5
 20
409.5
 10
416.0
 20
411.0
 10
417.5
 20
411.0
 10
418.0
 20
410.5
 10
418.5
 20
410.5
 10
420.5
 20
408.5
 10
420.5
 20
408.0
 10
421.0
 20
407.5
 10
421.0
 20
407.0
 10
421.5
 20
406.5
 10
421.5
 20
406.0
 10
422.0
 20
405.5
 10
422.5
 20
405.5
 10
423.0
 20
406.0
 10
423.0
 20
408.5
 10
421.5
 20
410.0
 10
422.0
 20
410.5
 10
422.0
 20
411.0
 10
423.0
 20
412.0
 10
424.0
 20
412.0
 10
426.0
 20
410.0
 10
427.0
 20
410.0
 10
427.5
 20
410.5
 10
428.0
 20
410.5
 10
428.0
 20
412.5
 10
427.5
 20
413.0
 10
427.5
 20
416.5
 10
428.5
 20
417.5
 10
428.5
 20
418.5
 10
429.0
 20
419.0
 10
429.0
 20
419.5
 10
429.5
 20
420.0
 10
430.0
 20
420.0
 10
430.5
 20
420.5
 10
430.5
 20
422.0
 10
430.0
 20
422.0
 10
429.0
 20
423.0
 10
428.5
 20
423.0
 10
428.0
 20
423.5
 10
427.5
 20
423.5
 10
427.0
 20
424.0
 10
426.0
 20
424.0
 10
425.5
 20
423.5
 10
425.0
 20
423.5
 10
424.5
 20
423.0
 10
422.5
 20
423.0
 10
422.5
 20
422.5
 10
422.0
 20
422.0
 10
422.0
 20
421.5
 10
421.5
 20
421.0
 10
421.5
 20
420.0
 10
421.0
 20
419.5
 10
421.0
 20
418.5
 10
420.0
 20
417.5
 10
419.0
 20
417.5
 10
418.0
 20
418.5
 10
418.0
 20
419.0
 10
418.5
 20
419.5
 10
418.5
 20
421.0
 10
419.0
 20
421.5
 10
419.0
 20
422.0
 10
420.5
 20
423.5
 10
421.0
 20
423.5
 10
423.5
 20
426.0
 10
424.5
 20
426.0
 10
425.0
 20
425.5
 10
426.0
 20
425.5
 10
426.5
 20
425.0
 10
427.0
 20
425.5
 10
427.5
 20
425.5
 10
429.5
 20
427.5
 10
430.0
 20
427.5
 10
430.5
 20
428.0
 10
432.0
 20
428.0
 10
433.0
 20
427.0
 10
433.0
 20
426.5
 10
433.5
 20
426.0
 10
433.5
 20
425.5
 10
434.0
 20
425.0
 10
434.0
 20
424.0
 10
434.5
 20
423.5
 10
435.0
 20
423.5
 10
435.5
 20
423.0
 10
437.5
 20
423.0
 10
438.5
 20
422.0
 10
438.0
 20
421.5
 10
438.0
 20
420.5
 10
437.0
 20
419.5
 10
436.5
 20
419.5
 10
436.0
 20
419.0
 10
435.5
 20
419.0
 10
435.0
 20
418.5
 10
434.5
 20
418.5
 10
434.5
 20
417.5
 10
435.0
 20
417.5
 10
435.5
 20
417.0
 10
436.0
 20
417.0
 10
436.5
 20
416.5
 10
437.0
 20
416.5
 10
438.0
 20
415.5
 10
438.5
 20
415.5
 10
439.5
 20
414.5
 10
439.5
 20
414.0
 10
441.0
 20
412.5
 10
441.0
 20
412.0
 10
442.5
 20
410.5
 10
443.0
 20
410.5
 10
445.5
 20
408.0
 10
446.5
 20
408.0
 10
447.0
 20
407.5
 10
448.0
 20
407.5
 10
448.5
 20
407.0
 10
451.0
 20
407.0
 10
451.5
 20
406.5
 10
453.0
 20
406.5
 10
453.5
 20
406.0
 10
455.5
 20
406.0
 10
456.0
 20
406.5
 10
456.5
 20
406.5
 10
456.5
 20
407.0
 10
457.0
 20
407.5
 10
457.0
 20
409.5
 10
457.5
 20
410.0
 10
457.5
 20
412.5
 10
458.5
 20
413.5
 10
460.5
 20
413.5
 10
461.5
 20
412.5
 10
462.0
 20
412.5
 10
463.0
 20
411.5
 10
463.0
 20
411.0
 10
463.5
 20
410.5
 10
463.5
 20
408.5
 10
463.0
 20
408.0
 10
463.0
 20
407.5
 10
462.0
 20
406.5
 10
462.0
 20
406.0
 10
461.5
 20
405.5
 10
461.5
 20
405.0
 10
460.5
 20
404.0
 10
460.5
 20
403.5
 10
458.5
 20
401.5
 10
458.5
 20
401.0
 10
458.0
 20
400.5
 10
458.0
 20
400.0
 10
457.5
 20
399.5
 10
457.5
 20
398.5
 10
458.5
 20
397.5
 10
460.0
 20
397.5
 10
460.5
 20
397.0
 10
461.0
 20
397.0
 10
461.5
 20
396.5
 10
462.0
 20
396.5
 10
462.5
 20
396.0
 10
463.0
 20
396.0
 10
464.5
 20
394.5
 10
464.5
 20
393.5
 10
465.0
 20
393.0
 10
465.0
 20
392.5
 10
465.5
 20
392.0
 10
466.0
 20
392.0
 10
466.5
 20
391.5
 10
468.0
 20
391.5
 10
468.5
 20
392.0
 10
468.5
 20
393.5
 10
468.0
 20
394.0
 10
468.0
 20
394.5
 10
468.5
 20
395.0
 10
468.5
 20
395.5
 10
470.0
 20
397.0
 10
472.5
 20
397.0
 10
473.0
 20
396.5
 10
476.0
 20
396.5
 10
476.5
 20
397.0
 10
477.0
 20
397.0
 10
477.0
 20
397.5
 10
477.5
 20
398.0
 10
477.0
 20
398.5
 10
477.0
 20
400.5
 10
476.5
 20
401.0
 10
476.5
 20
402.0
 10
474.5
 20
402.0
 10
474.0
 20
401.5
 10
473.5
 20
401.5
 10
472.0
 20
400.0
 10
471.5
 20
400.0
 10
471.0
 20
399.5
 10
471.0
 20
399.0
 10
470.5
 20
398.5
 10
470.0
 20
398.5
 10
469.5
 20
398.0
 10
469.0
 20
398.0
 10
468.0
 20
397.0
 10
467.5
 20
397.0
 10
467.0
 20
396.5
 10
466.5
 20
396.5
 10
466.0
 20
396.0
 10
465.0
 20
396.0
 10
464.0
 20
397.0
 10
464.0
 20
398.5
 10
463.5
 20
399.0
 10
464.0
 20
399.5
 10
464.0
 20
400.0
 10
465.0
 20
401.0
 10
466.0
 20
401.0
 10
466.5
 20
401.5
 10
467.0
 20
401.5
 10
468.5
 20
403.0
 10
468.5
 20
403.5
 10
469.0
 20
404.0
 10
469.0
 20
404.5
 10
471.5
 20
407.0
 10
475.0
 20
407.0
 10
477.0
 20
405.0
 10
480.5
 20
405.0
 10
481.5
 20
404.0
 10
482.5
 20
404.0
 10
483.0
 20
403.5
 10
484.0
 20
403.5
 10
484.5
 20
404.0
 10
487.0
 20
404.0
 10
488.5
 20
402.5
 10
488.5
 20
400.0
 10
488.0
 20
399.5
 10
488.0
 20
399.0
 10
487.5
 20
398.5
 10
487.0
 20
398.5
 10
486.5
 20
398.0
 10
486.0
 20
398.0
 10
485.5
 20
397.5
 10
485.0
 20
397.5
 10
484.0
 20
396.5
 10
484.0
 20
395.5
 10
484.5
 20
395.0
 10
486.0
 20
395.0
 10
486.5
 20
395.5
 10
487.5
 20
395.5
 10
488.0
 20
395.0
 10
489.0
 20
395.0
 10
489.5
 20
394.5
 10
491.0
 20
394.5
 10
491.5
 20
394.0
 10
492.0
 20
394.0
 10
492.5
 20
393.5
 10
493.0
 20
393.5
 10
493.5
 20
393.0
 10
494.0
 20
393.0
 10
494.5
 20
392.5
 10
498.0
 20
392.5
 10
499.0
 20
393.5
 10
499.5
 20
393.5
 10
499.5
 20
423.0
 10
498.5
 20
424.0
 10
498.5
 20
425.0
 10
499.0
 20
425.5
 10
499.0
 20
426.0
 10
499.5
 20
426.5
 10
499.5
 20
432.5
 10
498.5
 20
432.5
 10
498.0
 20
432.0
 10
497.0
 20
432.0
 10
496.5
 20
431.5
 10
494.0
 20
431.5
 10
493.5
 20
432.0
 10
493.0
 20
432.0
 10
491.5
 20
433.5
 10
491.0
 20
433.5
 10
490.5
 20
434.0
 10
490.5
 20
435.5
 10
491.0
 20
436.0
 10
491.0
 20
436.5
 10
491.5
 20
437.0
 10
492.0
 20
437.0
 10
492.5
 20
437.5
 10
496.0
 20
437.5
 10
496.5
 20
437.0
 10
498.0
 20
437.0
 10
498.5
 20
437.5
 10
498.5
 20
438.5
 10
498.0
 20
439.0
 10
498.0
 20
443.0
 10
497.5
 20
443.5
 10
497.5
 20
444.5
 10
497.0
 20
445.0
 10
497.0
 20
445.5
 10
496.0
 20
446.5
 10
496.0
 20
447.0
 10
495.5
 20
447.5
 10
495.5
 20
448.0
 10
494.5
 20
449.0
 10
494.0
 20
449.0
 10
493.5
 20
449.5
 10
493.5
 20
450.0
 10
493.0
 20
450.5
 10
493.0
 20
452.0
 10
492.5
 20
452.5
 10
492.5
 20
456.5
 10
492.0
 20
457.0
 10
492.0
 20
458.0
 10
491.5
 20
458.5
 10
491.5
 20
461.0
 10
492.5
 20
462.0
 10
493.5
 20
462.0
 10
494.0
 20
462.5
 10
494.0
 20
464.0
 10
492.5
 20
465.5
 10
492.5
 20
466.0
 10
492.0
 20
466.5
 10
492.0
 20
469.0
 10
492.5
 20
469.5
 10
492.5
 20
470.5
 10
493.0
 20
471.0
 10
493.0
 20
471.5
 10
494.0
 20
472.5
 10
494.0
 20
473.0
 10
494.5
 20
473.5
 10
494.5
 20
474.0
 10
495.0
 20
474.5
 10
495.0
 20
475.5
 10
495.5
 20
476.0
 10
495.5
 20
476.5
 10
496.5
 20
477.5
 10
497.0
 20
477.5
 10
497.5
 20
478.0
 10
498.5
 20
478.0
 10
499.0
 20
478.5
 10
499.5
 20
478.5
 10
499.5
 20
480.5
 10
498.5
 20
481.5
 10
498.5
 20
482.0
 10
497.0
 20
483.5
 10
496.5
 20
483.5
 10
495.5
 20
482.5
 10
495.5
 20
481.5
 10
495.0
 20
481.0
 10
495.0
 20
479.0
 10
494.5
 20
478.5
 10
494.5
 20
478.0
 10
494.0
 20
477.5
 10
493.0
 20
477.5
 10
492.5
 20
477.0
 10
490.0
 20
477.0
 10
489.5
 20
477.5
 10
488.5
 20
477.5
 10
487.0
 20
476.0
 10
485.5
 20
476.0
 10
485.0
 20
476.5
 10
484.5
 20
476.5
 10
484.0
 20
477.0
 10
483.5
 20
477.0
 10
483.0
 20
477.5
 10
482.5
 20
477.5
 10
482.0
 20
478.0
 10
480.0
 20
478.0
 10
479.5
 20
478.5
 10
479.0
 20
478.5
 10
477.5
 20
480.0
 10
477.0
 20
480.0
 10
476.5
 20
480.5
 10
476.0
 20
480.5
 10
475.5
 20
481.0
 10
474.0
 20
481.0
 10
473.5
 20
481.5
 10
472.5
 20
481.5
 10
472.0
 20
482.0
 10
471.5
 20
482.0
 10
470.5
 20
483.0
 10
470.5
 20
483.5
 10
470.0
 20
484.0
 10
469.5
 20
484.0
 10
469.0
 20
484.5
 10
468.0
 20
484.5
 10
467.5
 20
484.0
 10
467.5
 20
483.5
 10
467.0
 20
483.0
 10
467.0
 20
482.0
 10
466.0
 20
481.0
 10
465.5
 20
481.0
 10
465.0
 20
480.5
 10
464.5
 20
480.5
 10
463.0
 20
479.0
 10
463.0
 20
478.0
 10
463.5
 20
477.5
 10
463.5
 20
477.0
 10
464.0
 20
476.5
 10
464.0
 20
476.0
 10
464.5
 20
475.5
 10
464.5
 20
474.5
 10
464.0
 20
474.0
 10
463.5
 20
474.0
 10
463.0
 20
473.5
 10
462.0
 20
473.5
 10
461.5
 20
473.0
 10
461.0
 20
473.0
 10
460.5
 20
472.5
 10
460.0
 20
472.5
 10
459.0
 20
473.5
 10
459.0
 20
475.0
 10
460.0
 20
476.0
 10
460.0
 20
476.5
 10
461.0
 20
477.5
 10
461.0
 20
478.0
 10
461.5
 20
478.5
 10
461.5
 20
480.5
 10
462.0
 20
481.0
 10
462.0
 20
481.5
 10
462.5
 20
482.0
 10
462.5
 20
483.0
 10
463.0
 20
483.5
 10
463.0
 20
487.0
 10
463.5
 20
487.5
 10
463.5
 20
492.0
 10
466.0
 20
494.5
 10
466.0
 20
498.5
 10
466.5
 20
499.0
 10
466.5
 20
499.5
 10
467.0
 20
500.0
 10
464.5
 20
500.0
 10
464.5
 20
499.0
 10
463.5
 20
498.0
 10
463.0
 20
498.0
 10
461.5
 20
499.5
 10
461.5
 20
500.0
 10
452.5
 20
500.0
 10
453.0
 20
499.5
 10
453.0
 20
497.5
 10
452.5
 20
497.0
 10
452.5
 20
496.5
 10
452.0
 20
496.0
 10
451.5
 20
496.0
 10
451.0
 20
495.5
 10
448.5
 20
498.0
 10
448.0
 20
498.0
 10
447.0
 20
499.0
 10
447.0
 20
500.0
 10
435.5
 20
500.0
 10
436.0
 20
499.5
 10
437.0
 20
499.5
 10
438.5
 20
498.0
 10
438.5
 20
496.0
 10
436.0
 20
493.5
 10
436.0
 20
492.0
 10
438.0
 20
490.0
 10
438.0
 20
489.5
 10
438.5
 20
489.0
 10
438.5
 20
488.5
 10
438.0
 20
488.0
 10
438.0
 20
487.0
 10
437.5
 20
486.5
 10
436.0
 20
486.5
 10
435.5
 20
487.0
 10
435.0
 20
487.0
 10
434.5
 20
487.5
 10
434.0
 20
487.5
 10
433.5
 20
488.0
 10
433.0
 20
488.0
 10
432.5
 20
488.5
 10
432.0
 20
488.5
 10
431.5
 20
489.0
 10
431.0
 20
489.0
 10
429.0
 20
491.0
 10
429.0
 20
492.0
 10
428.5
 20
492.5
 10
428.5
 20
496.0
 10
428.0
 20
496.5
 10
428.0
 20
497.0
 10
426.0
 20
499.0
 10
425.5
 20
499.0
 10
425.0
 20
499.5
 10
424.5
 20
499.0
 10
424.0
 20
499.0
 10
424.0
 20
498.0
 10
424.5
 20
497.5
 10
424.5
 20
497.0
 10
425.0
 20
496.5
 10
425.0
 20
494.5
 10
424.5
 20
494.0
 10
424.5
 20
493.5
 10
424.0
 20
493.0
 10
424.0
 20
492.5
 10
423.5
 20
492.0
 10
423.5
 20
491.5
 10
423.0
 20
491.0
 10
422.5
 20
491.0
 10
422.0
 20
490.5
 10
421.0
 20
490.5
 10
420.5
 20
490.0
 10
420.0
 20
490.0
 10
419.5
 20
489.5
 10
419.5
 20
489.0
 10
419.0
 20
488.5
 10
419.0
 20
482.5
 10
419.5
 20
482.0
 10
419.5
 20
481.5
 10
421.0
 20
480.0
 10
421.5
 20
480.0
 10
422.0
 20
479.5
 10
422.5
 20
479.5
 10
423.0
 20
479.0
 10
423.5
 20
479.0
 10
424.0
 20
478.5
 10
425.0
 20
478.5
 10
425.5
 20
479.0
 10
426.0
 20
479.0
 10
428.0
 20
481.0
 10
428.5
 20
481.0
 10
429.0
 20
481.5
 10
429.5
 20
481.5
 10
430.0
 20
482.0
 10
430.5
 20
482.0
 10
431.0
 20
482.5
 10
431.5
 20
482.5
 10
432.0
 20
483.0
 10
433.5
 20
483.0
 10
434.0
 20
483.5
 10
435.5
 20
483.5
 10
437.0
 20
485.0
 10
438.0
 20
485.0
 10
438.5
 20
484.5
 10
438.5
 20
482.5
 10
437.0
 20
481.0
 10
436.5
 20
481.0
 10
436.0
 20
480.5
 10
435.5
 20
480.5
 10
435.0
 20
480.0
 10
434.5
 20
480.0
 10
434.5
 20
479.5
 10
433.5
 20
478.5
 10
433.5
 20
478.0
 10
433.0
 20
477.5
 10
433.0
 20
476.0
 10
433.5
 20
475.5
 10
434.5
 20
475.5
 10
435.0
 20
475.0
 10
436.0
 20
475.0
 10
436.5
 20
474.5
 10
437.0
 20
474.5
 10
437.5
 20
474.0
 10
437.5
 20
473.5
 10
438.0
 20
473.0
 10
441.0
 20
473.0
 10
441.5
 20
473.5
 10
442.0
 20
473.5
 10
443.5
 20
475.0
 10
443.5
 20
475.5
 10
444.0
 20
476.0
 10
444.0
 20
479.0
 10
443.5
 20
479.5
 10
443.5
 20
481.0
 10
443.0
 20
481.5
 10
443.0
 20
483.5
 10
442.5
 20
484.0
 10
442.5
 20
486.0
 10
443.0
 20
486.5
 10
443.0
 20
487.0
 10
443.5
 20
487.5
 10
444.5
 20
487.5
 10
445.5
 20
486.5
 10
445.5
 20
485.5
 10
446.0
 20
485.0
 10
446.0
 20
484.5
 10
447.0
 20
483.5
 10
447.5
 20
483.5
 10
448.0
 20
484.0
 10
449.0
 20
484.0
 10
449.5
 20
483.5
 10
450.0
 20
483.5
 10
450.5
 20
483.0
 10
451.0
 20
483.0
 10
451.5
 20
482.5
 10
452.0
 20
482.5
 10
452.5
 20
482.0
 10
454.5
 20
482.0
 10
455.0
 20
482.5
 10
455.5
 20
482.5
 10
457.0
 20
484.0
 10
457.5
 20
484.0
 10
458.0
 20
484.5
 10
459.5
 20
483.0
 10
459.5
 20
482.5
 10
460.0
 20
482.0
 10
460.0
 20
481.0
 10
457.0
 20
478.0
 10
457.0
 20
477.5
 10
456.5
 20
477.0
 10
456.5
 20
474.0
 10
457.0
 20
473.5
 10
457.0
 20
470.0
 10
458.0
 20
469.0
 10
458.5
 20
469.0
 10
460.5
 20
467.0
 10
460.5
 20
466.5
 10
461.0
 20
466.0
 10
461.0
 20
465.0
 10
461.5
 20
464.5
 10
461.5
 20
463.5
 10
462.0
 20
463.0
 10
462.0
 20
462.0
 10
462.5
 20
461.5
 10
462.5
 20
460.5
 10
462.0
 20
460.0
 10
462.0
 20
459.5
 10
461.5
 20
459.0
 10
461.5
 20
458.5
 10
461.0
 20
458.0
 10
461.0
 20
457.5
 10
461.5
 20
457.0
 10
461.5
 20
456.5
 10
463.0
 20
455.0
 10
463.0
 20
454.5
 10
463.5
 20
454.0
 10
463.5
 20
453.0
 10
464.0
 20
452.5
 10
464.5
 20
452.5
 10
467.5
 20
455.5
 10
467.5
 20
456.0
 10
468.5
 20
457.0
 10
469.5
 20
457.0
 10
471.0
 20
455.5
 10
471.0
 20
454.5
 10
471.5
 20
454.0
 10
471.5
 20
453.5
 10
471.0
 20
453.0
 10
469.5
 20
453.0
 10
469.0
 20
452.5
 10
468.5
 20
452.5
 10
468.0
 20
452.0
 10
467.5
 20
452.0
 10
466.5
 20
451.0
 10
466.0
 20
451.0
 10
465.5
 20
450.5
 10
464.5
 20
450.5
 10
464.0
 20
451.0
 10
464.0
 20
451.5
 10
461.0
 20
451.5
 10
460.5
 20
452.0
 10
460.0
 20
452.0
 10
459.5
 20
452.5
 10
457.0
 20
452.5
 10
456.5
 20
452.0
 10
456.5
 20
451.5
 10
456.0
 20
451.0
 10
456.0
 20
449.0
 10
456.5
 20
448.5
 10
456.5
 20
448.0
 10
457.0
 20
448.0
 10
459.5
 20
445.5
 10
459.5
 20
445.0
 10
460.0
 20
444.5
 10
460.0
 20
444.0
 10
460.5
 20
443.5
 10
460.5
 20
441.5
 10
459.0
 20
440.0
 10
458.0
 20
440.0
 10
455.0
 20
443.0
 10
454.0
 20
442.0
 10
454.0
 20
441.0
 10
454.5
 20
440.5
 10
454.5
 20
440.0
 10
455.0
 20
439.5
 10
455.0
 20
437.5
 10
453.5
 20
436.0
 10
453.0
 20
436.0
 10
452.5
 20
435.5
 10
451.0
 20
435.5
 10
449.5
 20
437.0
 10
449.5
 20
437.5
 10
449.0
 20
438.0
 10
449.0
 20
442.0
 10
448.5
 20
442.5
 10
447.0
 20
442.5
 10
446.5
 20
442.0
 10
446.0
 20
442.0
 10
445.0
 20
441.0
 10
444.5
 20
441.0
 10
444.5
 20
440.5
 10
444.0
 20
440.0
 10
443.5
 20
440.0
 10
443.0
 20
439.5
 10
441.5
 20
439.5
 10
440.5
 20
438.5
 10
440.5
 20
438.0
 10
441.5
 20
437.0
 10
442.0
 20
437.0
 10
443.0
 20
438.0
 10
443.5
 20
438.0
 10
444.0
 20
437.5
 10
444.0
 20
434.0
 10
445.0
 20
433.0
 10
446.0
 20
433.0
 10
447.0
 20
432.0
 10
447.0
 20
430.5
 10
446.0
 20
429.5
 10
444.0
 20
429.5
 10
443.5
 20
430.0
 10
443.0
 20
430.0
 10
442.5
 20
429.5
 10
442.5
 20
429.0
 10
441.5
 20
428.0
 10
441.5
 20
427.5
 10
439.0
 20
425.0
 10
438.5
 20
425.5
 10
438.5
 20
427.5
 10
439.0
 20
428.0
 10
439.0
 20
432.0
 10
438.5
 20
432.5
 10
438.5
 20
433.5
 10
438.0
 20
434.0
 10
436.5
 20
434.0
 10
436.0
 20
433.5
 10
435.5
 20
433.5
 10
433.0
 20
431.0
 10
432.5
 20
431.0
 10
432.0
 20
430.5
 10
431.5
 20
430.5
 10
429.5
 20
432.5
 10
429.0
 20
432.5
 10
428.0
 20
433.5
 10
427.5
 20
433.5
 10
427.0
 20
434.0
 10
423.5
 20
434.0
 10
422.5
 20
433.0
 10
422.0
 20
433.0
 10
422.0
 20
432.5
 10
419.5
 20
430.0
 10
418.5
 20
430.0
 10
418.0
 20
429.5
 10
413.5
 20
429.5
 10
413.0
 20
429.0
 10
413.0
 20
425.0
 10
413.5
 20
424.5
 10
413.5
 20
424.0
 10
414.5
 20
423.0
 10
414.5
 20
422.0
 10
415.0
 20
421.5
 10
415.0
 20
420.5
 10
415.5
 20
420.0
 10
415.5
 20
418.0
 10
414.5
 20
417.0
 10
411.0
 20
417.0
 10
410.5
 20
417.5
 10
410.5
 20
422.5
 10
410.0
 20
423.0
 10
410.0
 20
423.5
 10
409.5
 20
424.0
 10
409.5
 20
424.5
 10
409.0
 20
425.0
 10
409.0
 20
429.5
 10
410.0
 20
430.5
 10
411.5
 20
430.5
 10
411.5
 20
431.0
 10
411.0
 20
431.5
 10
411.5
 20
432.0
 10
412.0
 20
432.0
 10
411.5
 20
432.5
 10
411.5
 20
433.5
 10
411.0
 20
434.0
 10
410.0
 20
434.0
 10
409.5
 20
433.5
 10
409.0
 20
433.5
 10
408.5
 20
433.0
 10
405.0
 20
433.0
 10
404.5
 20
432.5
 10
404.0
 20
432.5
 10
404.0
 20
432.0
 10
403.5
 20
431.5
 10
403.5
 20
429.0
 10
403.0
 20
428.5
 10
403.0
 20
427.5
 10
401.5
 20
426.0
 10
401.0
 20
426.0
 10
400.5
 20
425.5
 10
400.0
 20
425.5
 10
399.5
 20
425.0
 10
399.0
 20
425.0
 10
397.0
 20
423.0
 10
396.5
 20
423.0
 10
395.5
 20
422.0
 10
395.0
 20
422.0
 10
393.5
 20
420.5
 10
393.5
 20
420.0
 10
393.0
 20
419.5
 10
393.0
 20
418.5
 10
392.5
 20
418.0
 10
393.0
 20
417.5
 10
393.0
 20
416.5
 10
392.5
 20
416.0
 10
392.5
 20
415.5
 10
392.0
 20
415.0
 10
391.5
 20
415.0
 10
390.5
 20
416.0
 10
390.5
 20
416.5
 10
390.0
 20
417.0
 10
390.0
 20
419.5
 10
391.0
 20
420.5
 10
391.0
 20
421.0
 10
391.5
 20
421.5
 10
391.5
 20
423.5
 10
391.0
 20
424.0
 10
391.0
 20
427.5
 10
391.5
 20
428.0
 10
391.0
 20
428.5
 10
391.0
 20
429.5
 10
389.0
 20
431.5
 10
384.0
 20
431.5
 10
383.5
 20
432.0
 10
383.5
 20
432.5
 10
382.5
 20
433.5
 10
382.5
 20
434.0
 10
382.0
 20
434.5
 10
381.5
 20
434.5
 10
381.0
 20
435.0
 10
380.0
 20
435.0
 10
378.5
 20
433.5
 10
378.5
 20
433.0
 10
378.0
 20
432.5
 10
377.0
 20
432.5
 10
376.5
 20
433.0
 10
376.0
 20
433.0
 10
375.5
 20
433.5
 10
374.5
 20
433.5
 10
374.0
 20
434.0
 10
368.5
 20
434.0
 10
367.0
 20
435.5
 10
367.0
 20
437.5
 10
366.5
 20
437.5
 10
365.5
 20
436.5
 10
363.0
 20
436.5
 10
362.5
 20
437.0
 10
362.5
 20
437.5
 10
361.5
 20
438.5
 10
361.5
 20
439.0
 10
359.5
 20
441.0
 10
359.0
 20
441.0
 10
358.5
 20
441.5
 10
358.5
 20
442.0
 10
358.0
 20
442.5
 10
358.0
 20
445.0
 10
358.5
 20
445.5
 10
359.0
 20
445.5
 10
361.0
 20
443.5
 10
361.0
 20
443.0
 10
361.5
 20
443.0
 10
362.0
 20
442.5
 10
363.5
 20
442.5
 10
364.0
 20
443.0
 10
364.5
 20
443.0
 10
364.5
 20
443.5
 10
365.0
 20
444.0
 10
365.0
 20
445.5
 10
363.5
 20
447.0
 10
363.0
 20
447.0
 10
362.5
 20
447.5
 10
362.0
 20
447.5
 10
361.5
 20
448.0
 10
357.0
 20
448.0
 10
356.5
 20
448.5
 10
356.5
 20
449.0
 10
356.0
 20
449.5
 10
356.0
 20
450.5
 10
355.5
 20
451.0
 10
355.5
 20
452.0
 10
354.0
 20
453.5
 10
354.0
 20
455.0
 10
354.5
 20
455.5
 10
354.5
 20
462.0
 10
354.0
 20
462.5
 10
354.0
 20
463.0
 10
352.5
 20
464.5
 10
352.0
 20
464.5
 10
351.5
 20
465.0
 10
351.0
 20
464.5
 10
350.5
 20
464.5
 10
349.5
 20
465.5
 10
349.5
 20
468.0
 10
349.0
 20
468.5
 10
349.0
 20
469.0
 10
345.5
 20
472.5
 10
345.5
 20
476.5
 10
345.0
 20
477.0
 10
345.0
 20
478.0
 10
344.0
 20
479.0
 10
344.0
 20
479.5
 10
343.5
 20
480.0
 10
343.5
 20
480.5
 10
343.0
 20
481.0
 10
343.0
 20
481.5
 10
342.5
 20
482.0
 10
342.5
 20
482.5
 10
342.0
 20
483.0
 10
342.0
 20
484.0
 10
341.5
 20
484.5
 10
341.5
 20
485.0
 10
341.0
 20
485.5
 10
341.0
 20
488.5
 10
341.5
 20
489.0
 10
341.5
 20
489.5
 10
342.5
 20
490.5
 10
343.0
 20
490.5
 10
344.0
 20
491.5
 10
344.5
 20
491.5
 10
344.5
 20
492.0
 10
345.0
 20
492.5
 10
345.5
 20
492.5
 10
350.5
 20
497.5
 10
350.5
 20
498.5
 10
351.0
 20
499.0
 10
351.0
 20
499.5
 10
351.5
 20
500.0
  0
LWPOLYLINE
  5
63
330
17
100
AcDbEntity
  8
0
100
AcDbPolyline
 90
14
 70
1
 10
461.5
 20
351.5
 10
462.0
 20
352.0
 10
462.5
 20
352.0
 10
464.0
 20
350.5
 10
464.5
 20
350.5
 10
465.0
 20
350.0
 10
465.0
 20
349.5
 10
466.0
 20
348.5
 10
466.0
 20
347.5
 10
465.5
 20
347.0
 10
464.0
 20
347.0
 10
463.5
 20
347.5
 10
462.5
 20
347.5
 10
461.5
 20
348.5
  0
LWPOLYLINE
  5
64
330
17
100
AcDbEntity
  8
0
100
AcDbPolyline
 90
8
 70
1
 10
474.0
 20
362.5
 10
474.5
 20
363.0
 10
476.0
 20
363.0
 10
477.0
 20
362.0
 10
477.0
 20
361.0
 10
476.5
 20
360.5
 10
475.5
 20
360.5
 10
474.0
 20
362.0
  0
LWPOLYLINE
  5
65
330
17
100
AcDbEntity
  8
0
100
AcDbPolyline
 90
10
 70
1
 10
484.0
 20
366.0
 10
485.5
 20
366.0
 10
486.5
 20
365.0
 10
486.5
 20
364.5
 10
486.0
 20
364.0
 10
486.0
 20
363.5
 10
485.0
 20
362.5
 10
484.0
 20
362.5
 10
483.0
 20
363.5
 10
483.0
 20
365.0
  0
LWPOLYLINE
  5
66
330
17
100
AcDbEntity
  8
0
100
AcDbPolyline
 90
16
 70
1
 10
429.5
 20
366.5
 10
430.0
 20
367.0
 10
431.0
 20
367.0
 10
433.0
 20
365.0
 10
433.0
 20
364.5
 10
433.5
 20
364.0
 10
433.5
 20
363.5
 10
433.0
 20
363.0
 10
433.0
 20
362.5
 10
432.5
 20
362.0
 10
432.0
 20
362.0
 10
431.5
 20
361.5
 10
431.0
 20
361.5
 10
429.0
 20
363.5
 10
429.0
 20
365.5
 10
429.5
 20
366.0
  0
LWPOLYLINE
  5
67
330
17
100
AcDbEntity
  8
0
100
AcDbPolyline
 90
6
 70
1
 10
432.5
 20
378.0
 10
433.0
 20
378.5
 10
433.5
 20
378.0
 10
433.5
 20
377.5
 10
433.0
 20
377.0
 10
432.5
 20
377.5
  0
LWPOLYLINE
  5
68
330
17
100
AcDbEntity
  8
0
100
AcDbPolyline
 90
9
 70
1
 10
410.5
 20
398.0
 10
411.5
 20
397.0
 10
411.5
 20
396.0
 10
411.0
 20
395.5
 10
411.0
 20
395.0
 10
410.0
 20
394.0
 10
408.5
 20
395.5
 10
409.0
 20
396.0
 10
409.0
 20
396.5
  0
LWPOLYLINE
  5
69
330
17
100
AcDbEntity
  8
0
100
AcDbPolyline
 90
12
 70
1
 10
403.0
 20
400.0
 10
404.5
 20
400.0
 10
406.5
 20
398.0
 10
406.5
 20
397.5
 10
407.0
 20
397.0
 10
407.0
 20
396.0
 10
405.5
 20
394.5
 10
404.0
 20
394.5
 10
402.5
 20
396.0
 10
402.5
 20
396.5
 10
402.0
 20
397.0
 10
402.0
 20
399.0
  0
LWPOLYLINE
  5
6A
330
17
100
AcDbEntity
  8
0
100
AcDbPolyline
 90
10
 70
1
 10
409.0
 20
404.5
 10
409.5
 20
405.0
 10
410.0
 20
405.0
 10
410.5
 20
404.5
 10
410.5
 20
404.0
 10
411.0
 20
403.5
 10
410.5
 20
403.0
 10
410.5
 20
402.5
 10
410.0
 20
402.0
 10
409.0
 20
403.0
  0
LWPOLYLINE
  5
6B
330
17
100
AcDbEntity
  8
0
100
AcDbPolyline
 90
9
 70
1
 10
399.5
 20
410.0
 10
400.5
 20
409.0
 10
400.5
 20
408.5
 10
401.0
 20
408.0
 10
401.0
 20
407.5
 10
400.5
 20
407.0
 10
399.5
 20
407.0
 10
398.5
 20
408.0
 10
398.5
 20
409.0
  0
LWPOLYLINE
  5
6C
330
17
100
AcDbEntity
  8
0
100
AcDbPolyline
 90
8
 70
1
 10
451.0
 20
413.5
 10
451.5
 20
414.0
 10
452.0
 20
414.0
 10
452.5
 20
413.5
 10
452.5
 20
413.0
 10
452.0
 20
412.5
 10
451.5
 20
412.5
 10
451.0
 20
413.0
  0
LWPOLYLINE
  5
6D
330
17
100
AcDbEntity
  8
0
100
AcDbPolyline
 90
10
 70
1
 10
398.5
 20
417.5
 10
400.0
 20
417.5
 10
401.0
 20
416.5
 10
401.0
 20
414.5
 10
399.5
 20
413.0
 10
399.0
 20
413.0
 10
397.5
 20
414.5
 10
397.5
 20
415.0
 10
397.0
 20
415.5
 10
397.0
 20
416.0
  0
LWPOLYLINE
  5
6E
330
17
100
AcDbEntity
  8
0
100
AcDbPolyline
 90
10
 70
1
 10
441.5
 20
417.5
 10
442.0
 20
418.0
 10
444.0
 20
418.0
 10
445.5
 20
416.5
 10
445.5
 20
416.0
 10
445.0
 20
415.5
 10
441.0
 20
415.5
 10
440.5
 20
416.0
 10
440.5
 20
417.0
 10
441.0
 20
417.5
  0
LWPOLYLINE
  5
6F
330
17
100
AcDbEntity
  8
0
100
AcDbPolyline
 90
6
 70
1
 10
470.0
 20
434.5
 10
470.5
 20
435.0
 10
471.0
 20
434.5
 10
471.0
 20
433.5
 10
470.5
 20
433.0
 10
470.0
 20
433.5
  0
LWPOLYLINE
  5
70
330
17
100
AcDbEntity
  8
0
100
AcDbPolyline
 90
10
 70
1
 10
481.5
 20
443.5
 10
482.5
 20
443.5
 10
483.0
 20
443.0
 10
483.0
 20
442.5
 10
483.5
 20
442.0
 10
483.5
 20
441.5
 10
482.5
 20
440.5
 10
481.0
 20
440.5
 10
480.0
 20
441.5
 10
480.0
 20
442.0
  0
LWPOLYLINE
  5
71
330
17
100
AcDbEntity
  8
0
100
AcDbPolyline
 90
18
 70
1
 10
466.5
 20
444.0
 10
467.0
 20
444.5
 10
468.5
 20
444.5
 10
470.0
 20
443.0
 10
470.0
 20
442.5
 10
470.5
 20
442.0
 10
470.5
 20
441.0
 10
469.5
 20
440.0
 10
468.5
 20
440.0
 10
468.0
 20
440.5
 10
467.5
 20
440.5
 10
467.0
 20
440.0
 10
466.0
 20
440.0
 10
465.5
 20
440.5
 10
465.0
 20
440.5
 10
464.5
 20
441.0
 10
464.5
 20
442.5
 10
466.0
 20
444.0
  0
LWPOLYLINE
  5
72
330
17
100
AcDbEntity
  8
0
100
AcDbPolyline
 90
6
 70
1
 10
469.5
 20
465.0
 10
471.0
 20
465.0
 10
472.0
 20
464.0
 10
470.5
 20
462.5
 10
469.0
 20
462.5
 10
468.0
 20
463.5
  0
LWPOLYLINE
  5
73
330
17
100
AcDbEntity
  8
0
100
AcDbPolyline
 90
22
 70
1
 10
478.0
 20
467.5
 10
478.5
 20
468.0
 10
479.0
 20
467.5
 10
480.0
 20
467.5
 10
480.5
 20
467.0
 10
481.5
 20
467.0
 10
482.0
 20
467.5
 10
482.5
 20
467.5
 10
483.5
 20
466.5
 10
483.5
 20
465.0
 10
482.5
 20
464.0
 10
482.0
 20
464.0
 10
482.0
 20
463.5
 10
480.5
 20
462.0
 10
477.5
 20
462.0
 10
477.0
 20
461.5
 10
476.5
 20
461.5
 10
475.5
 20
462.5
 10
475.5
 20
465.0
 10
476.0
 20
465.5
 10
476.0
 20
466.0
 10
477.5
 20
467.5
  0
LWPOLYLINE
  5
74
330
17
100
AcDbEntity
  8
0
100
AcDbPolyline
 90
8
 70
1
 10
424.0
 20
486.5
 10
424.5
 20
487.0
 10
425.0
 20
487.0
 10
426.0
 20
486.0
 10
426.0
 20
485.0
 10
425.5
 20
484.5
 10
424.5
 20
484.5
 10
424.0
 20
485.0
  0
ENDSEC
  0
SECTION
  2
OBJECTS
  0
DICTIONARY
  5
A
330
0
100
AcDbDictionary
281
1
  3
ACAD_COLOR
350
B
  3
ACAD_GROUP
350
C
  3
ACAD_LAYOUT
350
D
  3
ACAD_MATERIAL
350
E
  3
ACAD_MLEADERSTYLE
350
F
  3
ACAD_MLINESTYLE
350
10
  3
ACAD_PLOTSETTINGS
350
11
  3
ACAD_PLOTSTYLENAME
350
12
  3
ACAD_SCALELIST
350
14
  3
ACAD_TABLESTYLE
350
15
  3
ACAD_VISUALSTYLE
350
16
  3
EZDXF_META
350
2D
  0
DICTIONARY
  5
B
330
A
100
AcDbDictionary
281
1
  0
DICTIONARY
  5
C
330
A
100
AcDbDictionary
281
1
  0
DICTIONARY
  5
D
330
A
100
AcDbDictionary
281
1
  3
Model
350
1A
  3
Layout1
350
1E
  0
DICTIONARY
  5
E
330
A
100
AcDbDictionary
281
1
  3
ByBlock
350
1F
  3
ByLayer
350
20
  3
Global
350
21
  0
DICTIONARY
  5
F
330
A
100
AcDbDictionary
281
1
  3
Standard
350
2C
  0
DICTIONARY
  5
10
330
A
100
AcDbDictionary
281
1
  3
Standard
350
22
  0
DICTIONARY
  5
11
330
A
100
AcDbDictionary
281
1
  0
ACDBDICTIONARYWDFLT
  5
12
330
A
100
AcDbDictionary
281
1
  3
Normal
350
13
100
AcDbDictionaryWithDefault
340
13
  0
ACDBPLACEHOLDER
  5
13
330
12
  0
DICTIONARY
  5
14
330
A
100
AcDbDictionary
281
1
  0
DICTIONARY
  5
15
330
A
100
AcDbDictionary
281
1
  0
DICTIONARY
  5
16
330
A
100
AcDbDictionary
281
1
  0
LAYOUT
  5
1A
330
D
100
AcDbPlotSettings
  1

  4
A3
  6

 40
7.5
 41
20.0
 42
7.5
 43
20.0
 44
420.0
 45
297.0
 46
0.0
 47
0.0
 48
0.0
 49
0.0
140
0.0
141
0.0
142
1.0
143
1.0
 70
1024
 72
1
 73
0
 74
5
  7

 75
16
 76
0
 77
2
 78
300
147
1.0
148
0.0
149
0.0
100
AcDbLayout
  1
Model
 70
1
 71
0
 10
0.0
 20
0.0
 11
420.0
 21
297.0
 12
0.0
 22
0.0
 32
0.0
 14
1e+20
 24
1e+20
 34
1e+20
 15
-1e+20
 25
-1e+20
 35
-1e+20
146
0.0
 13
0.0
 23
0.0
 33
0.0
 16
1.0
 26
0.0
 36
0.0
 17
0.0
 27
1.0
 37
0.0
 76
1
330
17
  0
LAYOUT
  5
1E
330
D
100
AcDbPlotSettings
  1

  4
A3
  6

 40
7.5
 41
20.0
 42
7.5
 43
20.0
 44
420.0
 45
297.0
 46
0.0
 47
0.0
 48
0.0
 49
0.0
140
0.0
141
0.0
142
1.0
143
1.0
 70
0
 72
1
 73
0
 74
5
  7

 75
16
 76
0
 77
2
 78
300
147
1.0
148
0.0
149
0.0
100
AcDbLayout
  1
Layout1
 70
1
 71
1
 10
0.0
 20
0.0
 11
420.0
 21
297.0
 12
0.0
 22
0.0
 32
0.0
 14
1e+20
 24
1e+20
 34
1e+20
 15
-1e+20
 25
-1e+20
 35
-1e+20
146
0.0
 13
0.0
 23
0.0
 33
0.0
 16
1.0
 26
0.0
 36
0.0
 17
0.0
 27
1.0
 37
0.0
 76
1
330
1B
  0
MATERIAL
  5
1F
102
{ACAD_REACTORS
330
E
102
}
330
E
100
AcDbMaterial
  1
ByBlock
  2

 70
0
 40
1.0
 71
1
 41
1.0
 91
-1023410177
 42
1.0
 72
1
  3

 73
1
 74
1
 75
1
 44
0.5
 73
0
 45
1.0
 46
1.0
 77
1
  4

 78
1
 79
1
170
1
 48
1.0
171
1
  6

172
1
173
1
174
1
140
1.0
141
1.0
175
1
  7

176
1
177
1
178
1
143
1.0
179
1
  8

270
1
271
1
272
1
145
1.0
146
1.0
273
1
  9

274
1
275
1
276
1
 42
1.0
 72
1
  3

 73
1
 74
1
 75
1
 94
63
  0
MATERIAL
  5
20
102
{ACAD_REACTORS
330
E
102
}
330
E
100
AcDbMaterial
  1
ByLayer
  2

 70
0
 40
1.0
 71
1
 41
1.0
 91
-1023410177
 42
1.0
 72
1
  3

 73
1
 74
1
 75
1
 44
0.5
 73
0
 45
1.0
 46
1.0
 77
1
  4

 78
1
 79
1
170
1
 48
1.0
171
1
  6

172
1
173
1
174
1
140
1.0
141
1.0
175
1
  7

176
1
177
1
178
1
143
1.0
179
1
  8

270
1
271
1
272
1
145
1.0
146
1.0
273
1
  9

274
1
275
1
276
1
 42
1.0
 72
1
  3

 73
1
 74
1
 75
1
 94
63
  0
MATERIAL
  5
21
102
{ACAD_REACTORS
330
E
102
}
330
E
100
AcDbMaterial
  1
Global
  2

 70
0
 40
1.0
 71
1
 41
1.0
 91
-1023410177
 42
1.0
 72
1
  3

 73
1
 74
1
 75
1
 44
0.5
 73
0
 45
1.0
 46
1.0
 77
1
  4

 78
1
 79
1
170
1
 48
1.0
171
1
  6

172
1
173
1
174
1
140
1.0
141
1.0
175
1
  7

176
1
177
1
178
1
143
1.0
179
1
  8

270
1
271
1
272
1
145
1.0
146
1.0
273
1
  9

274
1
275
1
276
1
 42
1.0
 72
1
  3

 73
1
 74
1
 75
1
 94
63
  0
MLINESTYLE
  5
22
102
{ACAD_REACTORS
330
10
102
}
330
10
100
AcDbMlineStyle
  2
Standard
 70
0
  3

 62
256
 51
90.0
 52
90.0
 71
2
 49
0.5
 62
256
  6
BYLAYER
 49
-0.5
 62
256
  6
BYLAYER
  0
MLEADERSTYLE
  5
2C
102
{ACAD_REACTORS
330
F
102
}
330
F
100
AcDbMLeaderStyle
179
2
170
2
171
1
172
0
 90
2
 40
0.0
 41
0.0
173
1
 91
-1056964608
 92
-2
290
1
 42
2.0
291
1
 43
8.0
  3
Standard
 44
4.0
300

342
29
174
1
175
1
176
0
178
1
 93
-1056964608
 45
4.0
292
0
297
0
 46
4.0
 94
-1056964608
 47
1.0
 49
1.0
140
1.0
294
1
141
0.0
177
0
142
1.0
295
0
296
0
143
3.75
271
0
272
9
273
9
  0
DICTIONARY
  5
2D
330
A
100
AcDbDictionary
280
1
281
1
  3
CREATED_BY_EZDXF
350
2E
  3
WRITTEN_BY_EZDXF
350
77
  0
DICTIONARYVAR
  5
2E
330
2D
100
DictionaryVariables
280
0
  1
1.4.3 @ 2026-01-05T12:56:30.494145+00:00
  0
DICTIONARYVAR
  5
77
330
2D
100
DictionaryVariables
280
0
  1
1.4.3 @ 2026-01-05T12:56:30.555243+00:00
  0
ENDSEC
  0
EOF
